<svg width="24" height="24" viewBox="0 0 24 24" fill="none" xmlns="http://www.w3.org/2000/svg">
<path fill-rule="evenodd" clip-rule="evenodd" d="M7.20776 5.3999V3.6999C7.20776 2.70579 8.01365 1.8999 9.00776 1.8999H14.9836C15.9777 1.8999 16.7836 2.70579 16.7836 3.6999V5.3999H17.8279C18.3606 5.39989 18.8083 5.39988 19.1745 5.42981C19.5575 5.4611 19.9215 5.52905 20.267 5.70509C20.7938 5.97353 21.2222 6.40188 21.4906 6.92873C21.6667 7.27422 21.7346 7.63819 21.7659 8.02116C21.7773 8.1607 21.7844 8.31204 21.7887 8.4754C21.746 8.53015 21.6919 8.59522 21.6246 8.66855C21.3754 8.94046 20.9418 9.33139 20.239 9.73302C18.8349 10.5354 16.3205 11.4 11.9957 11.4C7.67099 11.4 5.15658 10.5354 3.75249 9.73302C3.04964 9.33139 2.61606 8.94046 2.36681 8.66855C2.29966 8.59529 2.24554 8.53029 2.20288 8.47558C2.20725 8.31216 2.2143 8.16076 2.22571 8.02116C2.257 7.63819 2.32495 7.27422 2.50098 6.92873C2.76943 6.40188 3.19778 5.97353 3.72463 5.70509C4.07012 5.52905 4.43408 5.4611 4.81706 5.42981C5.18335 5.39988 5.63098 5.39989 6.16366 5.3999H7.20776ZM8.80776 3.6999C8.80776 3.58945 8.89731 3.4999 9.00776 3.4999H14.9836C15.0941 3.4999 15.1836 3.58945 15.1836 3.6999V5.3999H8.80776V3.6999Z" fill="#A4A4B2"/>
<path fill-rule="evenodd" clip-rule="evenodd" d="M7.20776 5.3999V3.6999C7.20776 2.70579 8.01365 1.8999 9.00776 1.8999H14.9836C15.9777 1.8999 16.7836 2.70579 16.7836 3.6999V5.3999H17.8279C18.3606 5.39989 18.8083 5.39988 19.1745 5.42981C19.5575 5.4611 19.9215 5.52905 20.267 5.70509C20.7938 5.97353 21.2222 6.40188 21.4906 6.92873C21.6667 7.27422 21.7346 7.63819 21.7659 8.02116C21.7773 8.1607 21.7844 8.31204 21.7887 8.4754C21.746 8.53015 21.6919 8.59522 21.6246 8.66855C21.3754 8.94046 20.9418 9.33139 20.239 9.73302C18.8349 10.5354 16.3205 11.4 11.9957 11.4C7.67099 11.4 5.15658 10.5354 3.75249 9.73302C3.04964 9.33139 2.61606 8.94046 2.36681 8.66855C2.29966 8.59529 2.24554 8.53029 2.20288 8.47558C2.20725 8.31216 2.2143 8.16076 2.22571 8.02116C2.257 7.63819 2.32495 7.27422 2.50098 6.92873C2.76943 6.40188 3.19778 5.97353 3.72463 5.70509C4.07012 5.52905 4.43408 5.4611 4.81706 5.42981C5.18335 5.39988 5.63098 5.39989 6.16366 5.3999H7.20776ZM8.80776 3.6999C8.80776 3.58945 8.89731 3.4999 9.00776 3.4999H14.9836C15.0941 3.4999 15.1836 3.58945 15.1836 3.6999V5.3999H8.80776V3.6999Z" fill="url(#paint0_linear_5668_100293)" style="mix-blend-mode:darken"/>
<path d="M2.1958 15.032V10.6334C2.41989 10.7947 2.67315 10.9591 2.95867 11.1222C4.65617 12.0922 7.45878 13 11.9957 13C16.5327 13 19.3353 12.0922 21.0328 11.1222C21.3184 10.959 21.5717 10.7946 21.7958 10.6333V15.0322C21.7958 15.5648 21.7958 16.0124 21.7659 16.3786C21.7346 16.7616 21.6667 17.1256 21.4906 17.4711C21.2222 17.9979 20.7938 18.4263 20.267 18.6947C19.9215 18.8708 19.5575 18.9387 19.1745 18.97C18.8083 18.9999 18.3607 18.9999 17.828 18.9999H6.1637C5.63103 18.9999 5.18334 18.9999 4.81706 18.97C4.43408 18.9387 4.07012 18.8708 3.72463 18.6947C3.19778 18.4263 2.76943 17.9979 2.50098 17.4711C2.32495 17.1256 2.257 16.7616 2.22571 16.3786C2.19578 16.0124 2.19579 15.5647 2.1958 15.032Z" fill="#A4A4B2"/>
<path d="M2.1958 15.032V10.6334C2.41989 10.7947 2.67315 10.9591 2.95867 11.1222C4.65617 12.0922 7.45878 13 11.9957 13C16.5327 13 19.3353 12.0922 21.0328 11.1222C21.3184 10.959 21.5717 10.7946 21.7958 10.6333V15.0322C21.7958 15.5648 21.7958 16.0124 21.7659 16.3786C21.7346 16.7616 21.6667 17.1256 21.4906 17.4711C21.2222 17.9979 20.7938 18.4263 20.267 18.6947C19.9215 18.8708 19.5575 18.9387 19.1745 18.97C18.8083 18.9999 18.3607 18.9999 17.828 18.9999H6.1637C5.63103 18.9999 5.18334 18.9999 4.81706 18.97C4.43408 18.9387 4.07012 18.8708 3.72463 18.6947C3.19778 18.4263 2.76943 17.9979 2.50098 17.4711C2.32495 17.1256 2.257 16.7616 2.22571 16.3786C2.19578 16.0124 2.19579 15.5647 2.1958 15.032Z" fill="url(#paint1_linear_5668_100293)" style="mix-blend-mode:darken"/>
<defs>
<linearGradient id="paint0_linear_5668_100293" x1="11.9958" y1="1.8999" x2="11.9958" y2="18.9999" gradientUnits="userSpaceOnUse">
<stop stop-opacity="0"/>
<stop offset="1" stop-opacity="0.22"/>
</linearGradient>
<linearGradient id="paint1_linear_5668_100293" x1="11.9958" y1="1.8999" x2="11.9958" y2="18.9999" gradientUnits="userSpaceOnUse">
<stop stop-opacity="0"/>
<stop offset="1" stop-opacity="0.22"/>
</linearGradient>
</defs>
</svg>
