<svg width="29" height="29" viewBox="0 0 29 29" fill="none" xmlns="http://www.w3.org/2000/svg">
<mask id="mask0_5670_99170" style="mask-type:alpha" maskUnits="userSpaceOnUse" x="0" y="0" width="30" height="29">
<ellipse cx="14.5001" cy="14.5" rx="14.5001" ry="14.5" fill="white"/>
</mask>
<g mask="url(#mask0_5670_99170)">
<rect width="29.0003" height="29" fill="#F7931A"/>
<path d="M20.8894 12.4345C21.1781 10.5051 19.709 9.46794 17.7003 8.77603L18.3519 6.16243L16.761 5.76595L16.1266 8.31067C15.7084 8.20645 15.2788 8.10812 14.852 8.0107L15.4909 5.44921L13.9009 5.05273L13.2488 7.66543C12.9026 7.58658 12.5628 7.50865 12.2329 7.42663L12.2347 7.41848L10.0407 6.87065L9.61749 8.56986C9.61749 8.56986 10.7979 8.84037 10.773 8.85713C11.4173 9.01799 11.5338 9.44438 11.5143 9.7824L10.7721 12.7599C10.8165 12.7712 10.874 12.7875 10.9374 12.8129C10.8844 12.7997 10.8278 12.7852 10.7693 12.7712L9.72896 16.9422C9.65011 17.1379 9.45029 17.4315 8.99988 17.3201C9.01574 17.3432 7.84351 17.0314 7.84351 17.0314L7.05371 18.8525L9.12404 19.3686C9.50919 19.4651 9.88664 19.5662 10.2582 19.6613L9.59981 22.3048L11.1889 22.7013L11.841 20.0859C12.2751 20.2037 12.6965 20.3125 13.1088 20.4149L12.459 23.018L14.05 23.4145L14.7083 20.776C17.4212 21.2894 19.4612 21.0823 20.3198 18.6287C21.0118 16.6531 20.2854 15.5135 18.8581 14.7704C19.8975 14.5307 20.6805 13.8469 20.8894 12.4345V12.4345ZM17.2545 17.5317C16.7628 19.5073 13.4364 18.4393 12.358 18.1715L13.2316 14.6693C14.31 14.9385 17.7683 15.4713 17.2545 17.5317V17.5317ZM17.7465 12.406C17.298 14.203 14.5294 13.29 13.6313 13.0662L14.4233 9.88979C15.3214 10.1136 18.2137 10.5314 17.7465 12.406V12.406Z" fill="white"/>
</g>
<g clip-path="url(#clip0_5670_99170)">
<path fill-rule="evenodd" clip-rule="evenodd" d="M14.5001 29C22.5083 29 29.0003 22.5081 29.0003 14.5C29.0003 6.49187 22.5083 0 14.5001 0C6.49193 0 0 6.49187 0 14.5C0 22.5081 6.49193 29 14.5001 29ZM14.5001 27.7917C21.841 27.7917 27.7919 21.8408 27.7919 14.5C27.7919 7.15921 21.841 1.20833 14.5001 1.20833C7.15928 1.20833 1.20835 7.15921 1.20835 14.5C1.20835 21.8408 7.15928 27.7917 14.5001 27.7917Z" fill="url(#paint0_linear_5670_99170)"/>
<ellipse cx="14.5003" cy="14.5002" rx="13.2918" ry="13.2917" fill="url(#paint1_linear_5670_99170)"/>
</g>
<defs>
<linearGradient id="paint0_linear_5670_99170" x1="0" y1="0" x2="29" y2="29.0003" gradientUnits="userSpaceOnUse">
<stop stop-color="white" stop-opacity="0.15"/>
<stop offset="1" stop-opacity="0.1"/>
</linearGradient>
<linearGradient id="paint1_linear_5670_99170" x1="0.000150996" y1="0.000162708" x2="29.0001" y2="29.0004" gradientUnits="userSpaceOnUse">
<stop offset="0.1475" stop-opacity="0.15"/>
<stop offset="0.500721" stop-color="white" stop-opacity="0"/>
<stop offset="0.852707" stop-color="white" stop-opacity="0.15"/>
</linearGradient>
<clipPath id="clip0_5670_99170">
<rect width="29.0003" height="29" rx="14.5" fill="white"/>
</clipPath>
</defs>
</svg>
