<svg width="220" height="150" viewBox="0 0 220 150" fill="none" xmlns="http://www.w3.org/2000/svg">
<path opacity="0.05" d="M207.498 21.5117L219.113 22.8364C219.618 22.894 220 23.3215 220 23.8299V89C220 89.5523 219.552 90 219 90H0.999969C0.447678 90 -3.05176e-05 89.5523 -3.05176e-05 89V64.6007C-3.05176e-05 63.7981 0.897934 63.3225 1.56187 63.7735L9.91951 69.4508C10.0063 69.5097 10.1018 69.5547 10.2025 69.5839L15.3743 71.086C15.5791 71.1455 15.7975 71.1379 15.9977 71.0645L24.4678 67.9571C24.5673 67.9206 24.6721 67.9001 24.7781 67.8965L32.2784 67.6402C32.4917 67.6329 32.7017 67.6941 32.8777 67.8147L37.7812 71.1741C38.2774 71.5141 38.9593 71.3422 39.2351 70.8077L44.2702 61.048C44.6354 60.3401 45.6414 60.3226 46.0311 61.0174L50.2166 68.481C50.372 68.7582 50.6499 68.945 50.9653 68.9842L56.6867 69.6964C56.9168 69.725 57.1299 69.8328 57.2893 70.0012L60.8904 73.8044C61.4468 74.3921 62.4344 74.1099 62.5964 73.3169L65.6724 58.253C65.8148 57.5556 66.6197 57.226 67.2103 57.6233L69.9909 59.4935C70.513 59.8447 71.2259 59.6322 71.4704 59.0524L77.3559 45.0963C77.6553 44.3865 78.6109 44.2674 79.0752 44.882L84.5441 52.1201C84.9991 52.7223 85.9318 52.6226 86.2492 51.9377L97.5847 27.4785C97.7007 27.2281 97.9151 27.0368 98.177 26.9499L104.012 25.0131C104.228 24.9414 104.462 24.9455 104.675 25.0246L108.595 26.4794C108.879 26.5849 109.196 26.5557 109.456 26.4L115.02 23.0714C115.109 23.0185 115.205 22.9796 115.305 22.9561L119.466 21.9785C119.714 21.9201 119.976 21.959 120.197 22.0873L123.831 24.1985C123.995 24.2937 124.183 24.3404 124.372 24.333L130.569 24.0931C130.918 24.0795 131.249 24.249 131.441 24.5402L138.244 34.8123C138.65 35.4256 139.557 35.4053 139.935 34.7744L145.402 25.6585C145.585 25.352 145.919 25.1669 146.276 25.1729L153.837 25.3004C154.045 25.3039 154.249 25.2422 154.421 25.1237L161.538 20.2147C161.629 20.1517 161.73 20.1043 161.837 20.0745L168.511 18.2153C168.652 18.1761 168.799 18.1682 168.943 18.1921L178.136 19.7177C178.426 19.7658 178.722 19.6839 178.947 19.4936L182.547 16.4378C182.858 16.1733 183.299 16.1251 183.661 16.3158L186.037 17.5704C186.087 17.5967 186.134 17.6271 186.179 17.6614L191.864 22.025C191.943 22.0852 192.03 22.1335 192.122 22.1682L198.448 24.5369C198.675 24.6217 198.925 24.6215 199.151 24.5363L207.033 21.5693C207.181 21.5135 207.341 21.4937 207.498 21.5117Z" fill="#1EA977" stroke="#97DDC6" stroke-width="2" stroke-linejoin="round"/>
<path opacity="0.5" d="M220 22.7758L207.725 21.5317C207.418 21.5005 207.108 21.5409 206.819 21.6497L199.503 24.404C199.049 24.5745 198.55 24.575 198.097 24.4052L192.262 22.2205C192.077 22.1511 191.903 22.0546 191.746 21.9341L186.246 17.713C186.157 17.6444 186.062 17.5834 185.962 17.5308L184.259 16.6316C183.536 16.2501 182.654 16.3467 182.031 16.8755L179.3 19.1935C178.852 19.5741 178.259 19.7381 177.678 19.6418L169.162 18.2284C168.874 18.1806 168.579 18.1964 168.298 18.2748L161.999 20.0295C161.785 20.0891 161.583 20.1838 161.4 20.3099L154.685 24.9416C154.342 25.1785 153.933 25.3021 153.516 25.295L146.854 25.1826C146.139 25.1706 145.472 25.5408 145.105 26.1538L140.751 33.4141C139.994 34.6758 138.18 34.7165 137.368 33.4899L131.752 25.009C131.366 24.4268 130.705 24.0878 130.007 24.1148L124.662 24.3218C124.283 24.3365 123.908 24.2431 123.58 24.0527L120.541 22.2871C120.099 22.0305 119.576 21.9527 119.079 22.0695L115.456 22.9205C115.256 22.9677 115.064 23.0455 114.887 23.1512L109.868 26.1538C109.347 26.4651 108.714 26.5235 108.145 26.3125L105.004 25.1469C104.578 24.9886 104.11 24.9805 103.678 25.1238L98.5874 26.8136C98.0636 26.9875 97.6349 27.3701 97.4029 27.8708L86.9499 50.4259C86.3151 51.7956 84.4496 51.9951 83.5396 50.7906L80.1207 46.2656C79.192 45.0365 77.2807 45.2747 76.6821 46.6941L71.9423 57.9334C71.4533 59.093 70.0275 59.5182 68.9832 58.8158L68.4494 58.4567C67.2682 57.6622 65.6585 58.3213 65.3737 59.7161L62.9809 71.4339C62.6571 73.0197 60.6819 73.5841 59.569 72.4089L57.536 70.2617C57.2171 69.9249 56.791 69.7094 56.3307 69.6521L51.4668 69.0467C50.8361 68.9682 50.2803 68.5946 49.9694 68.0402L46.94 62.6382C46.1607 61.2485 44.1487 61.2835 43.4182 62.6995L39.7545 69.801C39.2029 70.8701 37.8391 71.2138 36.8467 70.5339L33.1488 68.0004C32.7967 67.7591 32.3766 67.6369 31.9501 67.6514L24.9381 67.891C24.7261 67.8983 24.5166 67.9392 24.3175 68.0122L16.3058 70.9515C15.9055 71.0983 15.4687 71.1134 15.0591 70.9945L10.3546 69.6281C10.1531 69.5696 9.96211 69.4797 9.78857 69.3618L-9.0003e-06 62.7125" stroke="#97DDC6" stroke-width="2" stroke-linejoin="round"/>
<g opacity="0.05">
<rect y="90" width="220" height="60" rx="1" fill="#1EA977"/>
</g>
</svg>
