<svg width="220" height="150" viewBox="0 0 220 150" fill="none" xmlns="http://www.w3.org/2000/svg">
<path opacity="0.05" d="M207.45 60.7123L219.102 61.9038C219.612 61.956 220 62.3857 220 62.8986V90H-1.52588e-05V33.432C-1.52588e-05 32.5806 0.99617 32.1186 1.64606 32.6687L8.3586 38.3505C8.46518 38.4407 8.58948 38.5076 8.72348 38.5469L13.8827 40.0585C14.089 40.119 14.3093 40.1113 14.5109 40.0367L23.0427 36.8791C23.1429 36.842 23.2485 36.8212 23.3553 36.8175L30.6962 36.5645C31.0358 36.5527 31.358 36.7143 31.5519 36.9933L37.0372 44.8884C37.2557 45.2029 37.6346 45.365 38.0129 45.3059L44.1423 44.348C44.3701 44.3124 44.6033 44.3567 44.8023 44.4733L49.0509 46.963C49.1678 47.0315 49.2974 47.0755 49.4319 47.0924L55.4972 47.854C55.7284 47.8831 55.9422 47.992 56.1017 48.1619L59.6817 51.9762C60.2477 52.5793 61.2595 52.2736 61.3969 51.458L64.8346 31.0615C64.8439 31.0063 64.8578 30.9521 64.8761 30.8993L69.7659 16.8329C69.9313 16.3569 70.425 16.0784 70.9179 16.183L76.6274 17.3941C76.8644 17.4444 77.0751 17.5789 77.2203 17.7729L84.2935 27.217C84.4682 27.4502 84.7358 27.5956 85.0265 27.6152L96.6782 28.4031C96.8086 28.4119 96.9394 28.3951 97.0632 28.3536L103.262 26.278C103.42 26.2251 103.588 26.2125 103.752 26.2413L107.933 26.9762C108.13 27.0109 108.334 26.9854 108.517 26.903L113.625 24.6002C114.067 24.4009 114.589 24.5476 114.862 24.9481L118.996 31.0048C119.08 31.1269 119.189 31.229 119.317 31.3038L123.131 33.5388C123.296 33.6354 123.484 33.6827 123.675 33.6753L130.28 33.4173C130.414 33.412 130.548 33.4339 130.674 33.4815L138.216 36.3416C138.42 36.4188 138.643 36.4274 138.852 36.3662L144.181 34.8047C144.718 34.6476 145.278 34.9604 145.427 35.4991L153.302 64.1285C153.485 64.7939 154.271 65.0783 154.838 64.6841L160.559 60.703C160.959 60.4248 161.501 60.4751 161.842 60.8223L168.123 67.2022C168.271 67.3524 168.463 67.452 168.671 67.4869L177.932 69.0374C178.164 69.0763 178.375 69.1957 178.528 69.3746L182.247 73.7333C182.773 74.3499 183.775 74.1174 183.976 73.3322L185.734 66.4666C185.816 66.1457 186.051 65.8862 186.363 65.7739L191.772 63.8233C191.934 63.765 192.107 63.7494 192.277 63.7777L198.329 64.7911C198.535 64.8255 198.746 64.7948 198.933 64.7034L206.909 60.8085C207.077 60.7267 207.264 60.6933 207.45 60.7123Z" fill="#FA5255"/>
<path opacity="0.5" d="M220 61.9956L207.734 60.7413C207.362 60.7034 206.988 60.77 206.652 60.9338L199.221 64.5628C198.847 64.7457 198.424 64.807 198.013 64.7382L192.535 63.8209C192.196 63.7642 191.849 63.7956 191.526 63.912L186.861 65.5942C186.238 65.819 185.767 66.3378 185.602 66.9797L184.454 71.4644C184.052 73.0347 182.047 73.4997 180.995 72.2667L178.764 69.6517C178.459 69.2938 178.037 69.055 177.573 68.9773L168.991 67.5404C168.575 67.4708 168.192 67.2715 167.896 66.971L162.434 61.4232C161.751 60.7289 160.666 60.6282 159.866 61.1847L155.998 63.8766C154.865 64.6649 153.293 64.0961 152.927 62.7655L145.696 36.4794C145.4 35.4019 144.278 34.7764 143.206 35.0906L139.174 36.2718C138.756 36.3943 138.31 36.377 137.903 36.2226L130.864 33.5536C130.613 33.4584 130.345 33.4147 130.077 33.4252L123.968 33.6639C123.586 33.6788 123.208 33.5841 122.878 33.3909L119.51 31.4173C119.255 31.2678 119.036 31.0636 118.87 30.8193L115.335 25.6405C114.788 24.8394 113.745 24.5461 112.861 24.9447L108.798 26.7764C108.432 26.9413 108.025 26.9924 107.629 26.9229L104.002 26.2853C103.674 26.2276 103.337 26.2528 103.021 26.3586L97.2508 28.2908C97.0031 28.3738 96.7415 28.4074 96.4809 28.3897L85.4843 27.6462C84.903 27.6069 84.3677 27.316 84.0184 26.8497L77.4456 18.0736C77.1552 17.6858 76.7338 17.4166 76.2598 17.3161L71.7805 16.3659C70.7947 16.1568 69.8072 16.7138 69.4764 17.6657L64.9037 30.82C64.867 30.9256 64.8392 31.034 64.8206 31.1443L61.7321 49.4694C61.4572 51.1006 59.4337 51.7119 58.3016 50.5058L56.3485 48.4248C56.0295 48.0849 55.6019 47.8672 55.1394 47.8091L49.6357 47.118C49.3668 47.0842 49.1075 46.9961 48.8737 46.8591L45.1099 44.6536C44.712 44.4204 44.2457 44.3319 43.79 44.4031L38.6313 45.2092C37.8747 45.3275 37.117 45.0033 36.6801 44.3744L31.8629 37.4409C31.4752 36.8828 30.8306 36.5598 30.1515 36.5832L23.5166 36.8119C23.3029 36.8193 23.0918 36.8609 22.8913 36.9351L14.8215 39.9218C14.4182 40.071 13.9776 40.0863 13.5649 39.9654L8.92672 38.6064C8.65871 38.5279 8.41011 38.3941 8.19694 38.2137L-9.0003e-06 31.2754" stroke="#FEB4B5" stroke-width="2" stroke-linejoin="round"/>
<g opacity="0.05">
<rect y="90" width="220" height="60" rx="1" fill="#FA5255"/>
</g>
</svg>
