<svg width="24" height="24" viewBox="0 0 24 24" fill="none" xmlns="http://www.w3.org/2000/svg">
<path fill-rule="evenodd" clip-rule="evenodd" d="M17.8323 4.2002H6.16807C5.63538 4.20018 5.18775 4.20017 4.82146 4.2301C4.43848 4.26139 4.07451 4.32934 3.72902 4.50538C3.20217 4.77382 2.77382 5.20217 2.50538 5.72902C2.32934 6.07451 2.26139 6.43848 2.2301 6.82146C2.20017 7.18775 2.20018 7.63536 2.2002 8.16805V15.8323C2.20018 16.365 2.20017 16.8126 2.2301 17.1789C2.26139 17.5619 2.32934 17.9259 2.50538 18.2714C2.77382 18.7982 3.20217 19.2266 3.72902 19.495C4.07451 19.671 4.43848 19.739 4.82146 19.7703C5.18776 19.8002 5.63538 19.8002 6.16809 19.8002H17.8323C18.365 19.8002 18.8126 19.8002 19.1789 19.7703C19.5619 19.739 19.9259 19.671 20.2714 19.495C20.7982 19.2266 21.2266 18.7982 21.495 18.2714C21.671 17.9259 21.739 17.5619 21.7703 17.1789C21.8002 16.8127 21.8002 16.3651 21.8002 15.8325V8.168C21.8002 7.63537 21.8002 7.18771 21.7703 6.82146C21.739 6.43848 21.671 6.07451 21.495 5.72902C21.2266 5.20217 20.7982 4.77382 20.2714 4.50538C19.9259 4.32934 19.5619 4.26139 19.1789 4.2301C18.8126 4.20017 18.365 4.20018 17.8323 4.2002ZM4.55215 5.89168C4.6363 5.86468 4.75829 5.84059 4.95175 5.82479C5.24512 5.80082 5.62694 5.8002 6.2002 5.8002H17.8002C18.3734 5.8002 18.7553 5.80082 19.0486 5.82479C19.2421 5.84059 19.3641 5.86467 19.4482 5.89168L12.5485 12.3856C12.2404 12.6755 11.7599 12.6755 11.4519 12.3856L4.55215 5.89168ZM3.80505 7.38572C3.8004 7.60751 3.8002 7.87259 3.8002 8.2002V15.8002C3.8002 16.3708 3.80081 16.7517 3.82445 17.0445L8.7908 12.0782L3.80505 7.38572ZM4.9558 18.1759C5.24864 18.1996 5.62958 18.2002 6.2002 18.2002H17.8002C18.3708 18.2002 18.7517 18.1996 19.0446 18.1759L14.0439 13.1753L13.6451 13.5507C12.721 14.4204 11.2794 14.4204 10.3553 13.5507L9.95646 13.1753L4.9558 18.1759ZM20.1759 17.0446C20.1996 16.7517 20.2002 16.3708 20.2002 15.8002V8.2002C20.2002 7.87259 20.2 7.6075 20.1953 7.38572L15.2096 12.0782L20.1759 17.0446Z" fill="#6F6F7C"/>
</svg>
