<svg width="24" height="24" viewBox="0 0 24 24" fill="none" xmlns="http://www.w3.org/2000/svg">
<path fill-rule="evenodd" clip-rule="evenodd" d="M19 10.5C19 12.4561 18.3392 14.2579 17.2288 15.6943L20.9986 19.316C21.4367 19.7369 21.4506 20.4333 21.0297 20.8714C20.6088 21.3095 19.9125 21.3234 19.4744 20.9025L15.67 17.2475C14.2375 18.3467 12.4451 19 10.5 19C5.80558 19 2 15.1944 2 10.5C2 5.80558 5.80558 2 10.5 2C15.1944 2 19 5.80558 19 10.5ZM10.2555 6.02832C10.7525 6.02832 11.1555 6.43126 11.1555 6.92832V12.7551C11.1555 13.2522 10.7525 13.6551 10.2555 13.6551C9.75841 13.6551 9.35547 13.2522 9.35547 12.7551V6.92832C9.35547 6.43126 9.75841 6.02832 10.2555 6.02832ZM6.65537 10.4082C7.15243 10.4082 7.55537 10.8111 7.55537 11.3082V12.755C7.55537 13.2521 7.15243 13.655 6.65537 13.655C6.15831 13.655 5.75537 13.2521 5.75537 12.755V11.3082C5.75537 10.8111 6.15831 10.4082 6.65537 10.4082ZM13.8517 8.40649C14.3487 8.40649 14.7517 8.80944 14.7517 9.30649V12.755C14.7517 13.2521 14.3487 13.655 13.8517 13.655C13.3546 13.655 12.9517 13.2521 12.9517 12.755V9.30649C12.9517 8.80944 13.3546 8.40649 13.8517 8.40649Z" fill="#FFC759"/>
<path fill-rule="evenodd" clip-rule="evenodd" d="M19 10.5C19 12.4561 18.3392 14.2579 17.2288 15.6943L20.9986 19.316C21.4367 19.7369 21.4506 20.4333 21.0297 20.8714C20.6088 21.3095 19.9125 21.3234 19.4744 20.9025L15.67 17.2475C14.2375 18.3467 12.4451 19 10.5 19C5.80558 19 2 15.1944 2 10.5C2 5.80558 5.80558 2 10.5 2C15.1944 2 19 5.80558 19 10.5ZM10.2555 6.02832C10.7525 6.02832 11.1555 6.43126 11.1555 6.92832V12.7551C11.1555 13.2522 10.7525 13.6551 10.2555 13.6551C9.75841 13.6551 9.35547 13.2522 9.35547 12.7551V6.92832C9.35547 6.43126 9.75841 6.02832 10.2555 6.02832ZM6.65537 10.4082C7.15243 10.4082 7.55537 10.8111 7.55537 11.3082V12.755C7.55537 13.2521 7.15243 13.655 6.65537 13.655C6.15831 13.655 5.75537 13.2521 5.75537 12.755V11.3082C5.75537 10.8111 6.15831 10.4082 6.65537 10.4082ZM13.8517 8.40649C14.3487 8.40649 14.7517 8.80944 14.7517 9.30649V12.755C14.7517 13.2521 14.3487 13.655 13.8517 13.655C13.3546 13.655 12.9517 13.2521 12.9517 12.755V9.30649C12.9517 8.80944 13.3546 8.40649 13.8517 8.40649Z" fill="url(#paint0_linear_5668_100281)" style="mix-blend-mode:color-burn"/>
<defs>
<linearGradient id="paint0_linear_5668_100281" x1="11.6682" y1="2" x2="11.6682" y2="21.2093" gradientUnits="userSpaceOnUse">
<stop stop-opacity="0.04"/>
<stop offset="1" stop-opacity="0.25"/>
</linearGradient>
</defs>
</svg>
