<svg width="20" height="20" viewBox="0 0 20 20" fill="none" xmlns="http://www.w3.org/2000/svg">
<g opacity="0.56">
<path fill-rule="evenodd" clip-rule="evenodd" d="M5.34439 5.43001C5.08785 5.69412 5.16454 6.11447 5.46614 6.32565C5.76774 6.53684 6.17938 6.45579 6.45506 6.21174C6.62153 6.06436 6.80533 5.93659 7.003 5.83149C7.39779 5.62157 7.83666 5.50807 8.28372 5.50027C8.73078 5.49247 9.17335 5.59058 9.57522 5.78659C9.77644 5.88473 9.96459 6.00601 10.1361 6.14748C10.4201 6.38177 10.8343 6.4484 11.1284 6.22682C11.4224 6.00524 11.4844 5.58247 11.2188 5.32748C10.9073 5.02843 10.5502 4.77867 10.1597 4.5882C9.56872 4.29995 8.9179 4.15566 8.26045 4.16714C7.60301 4.17861 6.95762 4.34552 6.37704 4.65422C5.9934 4.85821 5.64525 5.12028 5.34439 5.43001Z" fill="#6F6F7C"/>
<path fill-rule="evenodd" clip-rule="evenodd" d="M13.6 12.4215C15.6354 9.80612 15.4512 6.02306 13.0472 3.61913C10.4437 1.01563 6.22262 1.01563 3.61913 3.61913C1.01563 6.22262 1.01563 10.4437 3.61913 13.0472C6.02306 15.4512 9.80614 15.6354 12.4215 13.6L16.0773 17.2558C16.4027 17.5812 16.9303 17.5812 17.2558 17.2558C17.5812 16.9303 17.5812 16.4027 17.2558 16.0772L13.6 12.4215ZM12.1044 4.56193C14.1872 6.64473 14.1872 10.0216 12.1044 12.1044C10.0216 14.1872 6.64473 14.1872 4.56193 12.1044C2.47914 10.0216 2.47914 6.64473 4.56193 4.56193C6.64473 2.47914 10.0216 2.47914 12.1044 4.56193Z" fill="#6F6F7C"/>
</g>
</svg>
