<svg width="24" height="24" viewBox="0 0 24 24" fill="none" xmlns="http://www.w3.org/2000/svg">
<path fill-rule="evenodd" clip-rule="evenodd" d="M2.2002 5.3C2.2002 3.7536 3.4538 2.5 5.0002 2.5H19.0002C20.5466 2.5 21.8002 3.7536 21.8002 5.3V15.3C21.8002 16.8464 20.5466 18.1 19.0002 18.1H11.8286C11.5104 18.1 11.2051 18.2264 10.9801 18.4515L7.9073 21.5243C7.27733 22.1542 6.2002 21.708 6.2002 20.8172V18.1H5.0002C3.4538 18.1 2.2002 16.8464 2.2002 15.3V5.3ZM6.10034 7.99998C6.10034 7.50292 6.50329 7.09998 7.00034 7.09998H17.0003C17.4974 7.09998 17.9003 7.50292 17.9003 7.99998C17.9003 8.49703 17.4974 8.89998 17.0003 8.89998H7.00034C6.50329 8.89998 6.10034 8.49703 6.10034 7.99998ZM6.10034 11.9C6.10034 11.4029 6.50329 11 7.00034 11H14.0003C14.4974 11 14.9003 11.4029 14.9003 11.9C14.9003 12.3971 14.4974 12.8 14.0003 12.8H7.00034C6.50329 12.8 6.10034 12.3971 6.10034 11.9Z" fill="#A4A4B2"/>
<path fill-rule="evenodd" clip-rule="evenodd" d="M2.2002 5.3C2.2002 3.7536 3.4538 2.5 5.0002 2.5H19.0002C20.5466 2.5 21.8002 3.7536 21.8002 5.3V15.3C21.8002 16.8464 20.5466 18.1 19.0002 18.1H11.8286C11.5104 18.1 11.2051 18.2264 10.9801 18.4515L7.9073 21.5243C7.27733 22.1542 6.2002 21.708 6.2002 20.8172V18.1H5.0002C3.4538 18.1 2.2002 16.8464 2.2002 15.3V5.3ZM6.10034 7.99998C6.10034 7.50292 6.50329 7.09998 7.00034 7.09998H17.0003C17.4974 7.09998 17.9003 7.50292 17.9003 7.99998C17.9003 8.49703 17.4974 8.89998 17.0003 8.89998H7.00034C6.50329 8.89998 6.10034 8.49703 6.10034 7.99998ZM6.10034 11.9C6.10034 11.4029 6.50329 11 7.00034 11H14.0003C14.4974 11 14.9003 11.4029 14.9003 11.9C14.9003 12.3971 14.4974 12.8 14.0003 12.8H7.00034C6.50329 12.8 6.10034 12.3971 6.10034 11.9Z" fill="url(#paint0_linear_5668_100315)" style="mix-blend-mode:darken"/>
<defs>
<linearGradient id="paint0_linear_5668_100315" x1="12.0002" y1="2.5" x2="12.0002" y2="21.8192" gradientUnits="userSpaceOnUse">
<stop stop-opacity="0"/>
<stop offset="1" stop-opacity="0.22"/>
</linearGradient>
</defs>
</svg>
