<svg width="16" height="16" viewBox="0 0 16 16" fill="none" xmlns="http://www.w3.org/2000/svg">
<g clip-path="url(#clip0_5689_100059)">
<mask id="mask0_5689_100059" style="mask-type:alpha" maskUnits="userSpaceOnUse" x="0" y="0" width="16" height="16">
<circle cx="8" cy="8" r="8" fill="white"/>
</mask>
<g mask="url(#mask0_5689_100059)">
<rect width="16" height="16" fill="white"/>
<path d="M8.00192 3.06451H8.00342C8.04165 3.06394 8.07888 3.05189 8.11044 3.02985C8.14204 3.00782 8.16655 2.97677 8.18097 2.94059C8.19539 2.90441 8.1991 2.86469 8.19156 2.82638C8.18405 2.78807 8.16565 2.75288 8.13868 2.72517C8.11172 2.69747 8.07737 2.6785 8.03995 2.6706C8.00249 2.66271 7.96359 2.66626 7.92811 2.6808C7.89261 2.69535 7.86209 2.72024 7.84036 2.75238C7.81863 2.78452 7.80664 2.82249 7.80586 2.86156C7.80571 2.88804 7.81064 2.91429 7.82041 2.93882C7.83017 2.96335 7.84457 2.98568 7.86277 3.00452C7.88097 3.02337 7.90263 3.03837 7.92651 3.04866C7.95039 3.05895 7.976 3.06434 8.00192 3.06451Z" fill="#2B3141"/>
<path d="M10.9724 8.25663C10.9602 8.26351 10.9501 8.27384 10.9434 8.28635C10.9552 8.29313 11.2378 8.42449 11.8013 8.42472C12.1679 8.42472 12.5639 8.36801 12.9821 8.25571C12.764 8.72073 12.46 8.94295 12.0287 8.95411C11.9807 8.95544 11.9344 8.95544 11.8892 8.95544C11.4219 8.95544 11.0825 8.89258 10.6308 8.73278C10.62 8.72868 10.6084 8.72763 10.5971 8.7297C10.5858 8.7318 10.5752 8.73692 10.5665 8.74459C10.5845 8.75925 11.0557 9.12509 12.3726 9.32214C12.0882 9.59845 11.7885 9.65754 11.5841 9.65754C11.4975 9.65754 11.4112 9.64741 11.3269 9.62733C11.0034 9.53649 10.6162 9.32979 10.2106 9.02635C10.1988 9.01752 10.185 9.01202 10.1705 9.01044C10.1559 9.00888 10.1412 9.01125 10.1279 9.01739C10.1376 9.03425 10.3728 9.4303 11.5052 10.0142C11.3609 10.0885 11.2018 10.1278 11.0403 10.1289C10.8905 10.1299 10.7429 10.0916 10.6117 10.0177C10.2843 9.82415 10.0934 9.63741 9.78832 9.18247C9.78093 9.17119 9.77032 9.16252 9.75792 9.15766C9.74553 9.1528 9.73196 9.15198 9.71912 9.1553L9.72173 9.16385C9.72363 9.17018 9.72562 9.17681 9.72811 9.18355L9.73642 9.20544C9.81174 9.40438 9.95298 9.77744 10.6445 10.4037C10.5572 10.4431 10.4627 10.463 10.3673 10.4622C10.2257 10.4601 10.0867 10.423 9.96229 10.354C9.79773 10.2703 9.68567 10.1291 9.59997 9.89663C9.57717 9.83134 9.53005 9.7779 9.46884 9.74797C9.43637 9.73224 9.40087 9.72408 9.36492 9.72411C9.29785 9.72531 9.23366 9.75227 9.18516 9.79965C9.18389 9.80077 9.18233 9.80152 9.18066 9.80177C9.17898 9.80203 9.17728 9.80177 9.17572 9.80105C9.1742 9.80034 9.17289 9.79919 9.17197 9.79773C9.17107 9.79627 9.17059 9.79458 9.17059 9.79284V8.23972C9.17059 8.23793 9.17112 8.23616 9.17212 8.23465C9.17309 8.23317 9.17452 8.23202 9.17615 8.23135C9.1778 8.23069 9.1796 8.23056 9.18131 8.23094C9.18303 8.23135 9.18461 8.23227 9.18581 8.23358C9.33407 8.39321 9.49049 8.428 9.59762 8.428C9.83653 8.428 10.0709 8.25287 10.1429 8.0199C10.1442 8.01532 10.2644 7.55227 9.85431 7.33071H9.85196C9.85196 7.33071 9.81445 7.31493 9.81187 7.28909C9.8106 7.2742 9.81939 7.24202 9.89417 7.19234L9.89464 7.19205C9.91076 7.18209 10.3117 6.93426 10.8097 6.44291C11.2704 5.98774 11.9102 5.22562 12.3573 4.16773C12.4516 4.33871 12.8112 5.08529 12.3638 5.80777C12.0987 6.22769 11.7285 6.59593 11.2005 6.96441C11.19 6.97167 11.1817 6.9818 11.1766 6.99365C11.1714 7.00549 11.1696 7.01857 11.1714 7.03141C11.1789 7.02923 11.95 6.79803 12.968 5.70335C12.9984 5.8728 13.0779 6.54539 12.5422 7.01872C12.0694 7.40272 11.7366 7.50761 11.2087 7.63173C11.1934 7.63541 11.1795 7.6436 11.1688 7.65529C11.158 7.66698 11.1509 7.68161 11.1482 7.69742C11.1669 7.69939 11.1857 7.6999 11.2044 7.69895C11.4594 7.69895 12.1572 7.62802 13.1668 6.97646C13.1568 7.14724 13.0809 7.80732 12.509 8.03896C12.2729 8.14034 11.926 8.25788 11.3338 8.25788C11.2267 8.25788 11.1264 8.25484 11.0124 8.24739C10.9985 8.24652 10.9846 8.24972 10.9724 8.25663Z" fill="#2B3141"/>
<path d="M5.36909 8.73278C4.91721 8.89258 4.57803 8.95544 4.11051 8.95544C4.06537 8.95544 4.01895 8.95492 3.97124 8.9539C3.53992 8.94272 3.23588 8.7205 3.01776 8.25548C3.43579 8.36781 3.83282 8.42449 4.19836 8.42449C4.76187 8.42449 5.04535 8.29313 5.05713 8.28679C5.0504 8.27425 5.04032 8.26392 5.02807 8.25704C5.01581 8.25013 5.00189 8.24693 4.98792 8.24783C4.87436 8.25527 4.77366 8.25834 4.66653 8.25834C4.0743 8.25834 3.72698 8.14164 3.49129 8.03939C2.9192 7.80885 2.84357 7.14768 2.8335 6.97689C3.84289 7.62845 4.54075 7.69939 4.79594 7.69939C4.81459 7.70036 4.83329 7.69985 4.85186 7.69785C4.84929 7.68202 4.84218 7.66734 4.83142 7.65564C4.82066 7.64393 4.80675 7.63577 4.79144 7.63216C4.26349 7.50717 3.93074 7.40229 3.45808 7.01915C2.9222 6.54582 3.00169 5.87323 3.03233 5.70378C4.0503 6.79736 4.82122 7.02967 4.82894 7.03184C4.83071 7.01903 4.82892 7.00593 4.82377 6.99408C4.81861 6.98224 4.81031 6.97211 4.7998 6.96484C4.27185 6.5964 3.9016 6.22813 3.63656 5.80821C3.18918 5.08507 3.54871 4.33915 3.64299 4.16816C4.08994 5.22605 4.72973 5.98817 5.19062 6.44444C5.69628 6.94361 6.1021 7.19144 6.10616 7.19387C6.18094 7.24355 6.18973 7.27573 6.18822 7.29062C6.18565 7.31646 6.14837 7.33222 6.14837 7.33222H6.14601C5.73591 7.55381 5.85613 8.01685 5.85741 8.02143C5.92941 8.25438 6.16359 8.42953 6.4027 8.42953C6.51026 8.42953 6.66603 8.39472 6.81431 8.23511C6.81554 8.23384 6.81712 8.23294 6.81884 8.23256C6.82057 8.2322 6.82235 8.23233 6.824 8.23299C6.82565 8.23363 6.82705 8.23476 6.82808 8.23624C6.82911 8.2377 6.82968 8.23946 6.82973 8.24125V9.79284C6.82973 9.79458 6.82926 9.79627 6.82836 9.79773C6.82743 9.79919 6.82613 9.80034 6.8246 9.80105C6.82305 9.80177 6.82135 9.80203 6.81967 9.80177C6.81799 9.80152 6.81644 9.80077 6.81516 9.79965C6.76657 9.75227 6.70233 9.72531 6.63518 9.72411C6.59923 9.72413 6.56376 9.73227 6.53126 9.74797C6.47015 9.77796 6.42311 9.83139 6.40035 9.89663C6.3142 10.1291 6.20259 10.2703 6.03804 10.354C5.91361 10.423 5.77464 10.4601 5.63306 10.4622C5.5372 10.4632 5.44224 10.4432 5.35452 10.4037C6.04667 9.77623 6.18767 9.4039 6.26295 9.20511L6.27114 9.18354C6.2736 9.17693 6.27556 9.17041 6.27743 9.16419C6.27834 9.16115 6.27924 9.15818 6.28015 9.1553C6.26726 9.15193 6.25364 9.15272 6.2412 9.15761C6.22878 9.16247 6.21812 9.17114 6.21073 9.18247C5.90582 9.63741 5.7147 9.82415 5.38752 10.0177C5.25633 10.0916 5.10879 10.1299 4.959 10.1289C4.79736 10.1278 4.63817 10.0885 4.49383 10.0142C5.6262 9.4303 5.86149 9.03425 5.87113 9.01739C5.85783 9.01128 5.84319 9.0089 5.82869 9.01046C5.81419 9.01205 5.80037 9.01752 5.78863 9.02635C5.38303 9.32979 4.99585 9.53649 4.6721 9.62733C4.5878 9.64744 4.50153 9.65757 4.41498 9.65754C4.21036 9.65754 3.9106 9.59845 3.62627 9.32215C4.93758 9.12596 5.41016 8.76246 5.4331 8.74481L5.43338 8.74459C5.42462 8.73702 5.41408 8.73196 5.40279 8.72988C5.3915 8.72781 5.37988 8.72881 5.36909 8.73278Z" fill="#2B3141"/>
<path fill-rule="evenodd" clip-rule="evenodd" d="M8.67227 8.80609C8.81174 8.88207 8.91524 9.01146 8.92616 9.18245C8.94416 9.41629 8.82481 9.57349 8.65535 9.65054C8.69648 9.93516 8.78541 10.176 8.9236 10.236L8.61163 10.2281C8.57478 10.1033 8.55035 9.90428 8.53663 9.69039C8.45714 9.70774 8.37537 9.71129 8.29473 9.70091C8.23109 9.98092 8.15246 10.2553 8.00054 10.4917C7.84885 10.255 7.77107 9.98026 7.70678 9.69981C7.62619 9.7104 7.5444 9.70707 7.46488 9.68996C7.45117 9.90407 7.42718 10.1031 7.3901 10.2281L7.0732 10.2331C7.21205 10.1725 7.30098 9.93255 7.34191 9.649C7.1737 9.57129 7.0552 9.41475 7.07386 9.18245C7.085 9.01233 7.18719 8.88317 7.32519 8.80676C7.29775 8.68174 7.25747 8.58169 7.20457 8.52849H7.41474C7.45845 8.59428 7.4957 8.66432 7.52595 8.73759C7.66635 8.71134 7.8113 8.73713 7.93477 8.81026V8.63687H8.06611V8.81026C8.18931 8.7381 8.33344 8.71259 8.47321 8.73823C8.50313 8.66568 8.54008 8.59635 8.58357 8.53135H8.79204C8.73954 8.5841 8.69968 8.68241 8.67227 8.80609ZM8.43764 8.82779C8.3039 8.81239 8.16961 8.85176 8.06418 8.93725V9.50145C8.1117 9.55131 8.17129 9.5874 8.23688 9.6061C8.24509 9.56946 8.25325 9.53246 8.26145 9.49528C8.31192 9.26653 8.36392 9.0308 8.43764 8.82779ZM7.93412 9.50122V8.93725C7.82872 8.85201 7.69466 8.81277 7.5611 8.82799C7.63418 9.02795 7.68501 9.25909 7.73461 9.4847C7.74362 9.52564 7.75258 9.56641 7.76163 9.60677C7.8273 9.58786 7.88683 9.55143 7.93412 9.50122ZM7.34554 8.91645C7.23005 9.00819 7.16599 9.16232 7.21205 9.35213C7.23223 9.43501 7.28338 9.50654 7.35453 9.55136C7.37681 9.34013 7.37381 9.12694 7.34554 8.91645ZM7.46554 8.85076C7.48258 9.1024 7.48416 9.35492 7.47024 9.60677C7.54149 9.628 7.61635 9.63352 7.68985 9.62296C7.68051 9.58003 7.67137 9.53703 7.66225 9.49407C7.61472 9.27023 7.56745 9.04763 7.49125 8.84245C7.48246 8.84485 7.47387 8.84772 7.46554 8.85076ZM7.89126 10.0805C7.93412 9.89773 7.93412 9.63107 7.93412 9.63107V9.6304C7.88495 9.65522 7.83311 9.67405 7.77963 9.68645C7.80867 9.82009 7.84595 9.95171 7.89126 10.0805ZM7.93197 10.1801C7.951 10.2218 7.9732 10.2618 7.99841 10.2999L7.99884 10.2993C8.024 10.2614 8.04613 10.2216 8.06503 10.1801H7.93197ZM8.10499 10.0826C8.15117 9.95351 8.18912 9.82157 8.21868 9.68755C8.1651 9.67502 8.11318 9.65604 8.06396 9.63107C8.06396 9.63107 8.05864 9.90042 8.10499 10.0826ZM8.31306 9.6226C8.32308 9.57678 8.33283 9.53088 8.34256 9.48505C8.38935 9.26464 8.43584 9.04565 8.51134 8.84355C8.52013 8.84618 8.52872 8.84879 8.53728 8.85209C8.52013 9.10284 8.51855 9.35448 8.53257 9.60544C8.46137 9.62677 8.38659 9.63263 8.31306 9.6226ZM8.64347 9.55291C8.62106 9.34117 8.62417 9.12742 8.65277 8.91645C8.76891 9.00819 8.8336 9.16232 8.78753 9.35279C8.76721 9.43632 8.71544 9.50823 8.64347 9.55291Z" fill="#2B3141"/>
<path d="M9.20629 6.03133C9.45229 5.82463 10.0321 5.62016 10.3601 5.68255C10.3713 5.68475 10.5757 4.96313 9.22452 4.96313C9.22452 4.96313 8.68115 4.9686 8.39532 4.91737C8.51659 5.03778 8.79513 5.32743 8.56909 5.68913C8.12148 6.27499 8.02141 6.76191 7.99978 7.29917C7.97835 6.76147 7.87808 6.27499 7.43047 5.68913C7.20465 5.32743 7.48297 5.03778 7.60425 4.91737C7.31864 4.9686 6.77505 4.96313 6.77505 4.96313C5.42518 4.96313 5.62895 5.68562 5.63944 5.68255C5.96748 5.62016 6.54707 5.82463 6.79327 6.03133C7.29636 6.44992 7.40969 7.2278 6.96254 7.93978C6.96146 7.94152 6.96088 7.94351 6.96081 7.94559C6.96076 7.94763 6.96123 7.94965 6.96219 7.95144C6.96314 7.95326 6.96456 7.95477 6.96627 7.95584C6.96799 7.95689 6.96995 7.95748 6.97195 7.95751H9.02654C9.02856 7.95751 9.03052 7.95694 9.03224 7.95587C9.03397 7.95482 9.0354 7.95329 9.03635 7.95147C9.03728 7.94965 9.03773 7.94761 9.03763 7.94554C9.03753 7.94349 9.03687 7.94149 9.03575 7.93978C8.58964 7.2278 8.703 6.44992 9.20629 6.03133Z" fill="#2B3141"/>
<path d="M10.8035 11.2006C10.8249 11.2333 10.8364 11.2718 10.8364 11.3111C10.8363 11.3639 10.8158 11.4145 10.7792 11.4518C10.7427 11.4891 10.6932 11.5101 10.6416 11.5101C10.6031 11.5101 10.5654 11.4985 10.5334 11.4766C10.5014 11.4547 10.4764 11.4237 10.4616 11.3873C10.4469 11.3509 10.443 11.3109 10.4506 11.2723C10.4581 11.2337 10.4766 11.1982 10.5039 11.1704C10.5311 11.1426 10.5658 11.1236 10.6036 11.1159C10.6414 11.1083 10.6805 11.1122 10.7161 11.1273C10.7517 11.1423 10.7821 11.1678 10.8035 11.2006Z" fill="#2B3141"/>
<path d="M10.9908 11.4798C10.9596 11.5478 10.91 11.6053 10.848 11.6455C10.7859 11.6858 10.714 11.7072 10.6405 11.7072C10.5669 11.7072 10.4949 11.6858 10.4329 11.6455C10.3709 11.6053 10.3213 11.5478 10.2901 11.4798C10.2886 11.4766 10.2864 11.4738 10.2836 11.4717C10.2809 11.4696 10.2776 11.4682 10.2742 11.4677C10.2708 11.4671 10.2673 11.4674 10.264 11.4685C10.2608 11.4696 10.2578 11.4715 10.2554 11.4741C10.1886 11.542 10.1403 11.6265 10.115 11.7192C10.0898 11.812 10.0885 11.9099 10.1114 12.0032C10.0346 11.9799 9.95986 11.9498 9.88816 11.9133C9.61863 11.7819 9.72125 11.5115 9.80011 11.314C9.82459 11.2545 9.84004 11.1916 9.84595 11.1273C9.89417 10.5644 9.44421 10.387 9.22459 10.3349C9.21976 10.3338 9.21473 10.3339 9.20992 10.3351C9.20512 10.3364 9.20066 10.3387 9.19693 10.3421C9.19317 10.3454 9.19027 10.3496 9.18842 10.3543C9.18654 10.359 9.18581 10.364 9.18624 10.3691C9.225 10.8448 8.95799 10.8306 8.66588 10.8151C8.38163 10.8 8.07362 10.7836 8.00048 11.2162C7.92748 10.7837 7.61958 10.8001 7.33536 10.8152C7.04328 10.8307 6.77621 10.8449 6.81475 10.3693C6.81518 10.3643 6.81443 10.3591 6.81255 10.3544C6.8107 10.3497 6.80777 10.3455 6.80401 10.3421C6.80026 10.3388 6.79578 10.3364 6.79095 10.3351C6.78611 10.3339 6.78106 10.3338 6.7762 10.3349C6.55614 10.387 6.1064 10.5646 6.15482 11.1273C6.16093 11.1915 6.17638 11.2545 6.20068 11.314C6.27975 11.5111 6.38237 11.7817 6.11284 11.9133C5.80571 12.063 5.72214 12.0292 5.61178 11.9846C5.5456 11.9578 5.46978 11.9272 5.33034 11.9299C5.32455 11.9299 5.30591 11.9317 5.29305 11.9338C5.28122 11.9345 5.26939 11.9327 5.25831 11.9284C5.24723 11.9241 5.23717 11.9174 5.22878 11.9089L4.36186 11.0299C4.36538 11.0148 4.36718 10.9994 4.36722 10.9839C4.36723 10.9423 4.35496 10.9017 4.33203 10.8674C4.30909 10.8332 4.27654 10.8067 4.23866 10.7916C4.26853 10.7198 4.27671 10.6405 4.26217 10.5639C4.24762 10.4873 4.21101 10.4169 4.15703 10.3616L4.00918 10.5125C3.96753 10.4803 3.91595 10.4645 3.86382 10.4679C3.81169 10.4712 3.7625 10.4937 3.72519 10.531C3.68788 10.5684 3.66495 10.6182 3.66056 10.6714C3.65617 10.7245 3.67062 10.7775 3.70129 10.8208L3.5513 10.974C3.60577 11.0295 3.67529 11.067 3.75086 11.0816C3.82643 11.0963 3.90455 11.0874 3.97512 11.0561C3.98936 11.0957 4.01514 11.1298 4.04897 11.1539C4.0828 11.178 4.12306 11.191 4.16431 11.191C4.17952 11.1909 4.19468 11.1891 4.20952 11.1857L5.08586 12.0753C5.09237 12.0819 5.09695 12.0902 5.09907 12.0994C5.10119 12.1085 5.10077 12.118 5.09786 12.1269C5.09786 12.1293 5.09697 12.1313 5.09624 12.133C5.09595 12.1337 5.09568 12.1343 5.0955 12.1348C5.07583 12.2089 5.08379 12.2878 5.11784 12.3563C5.15188 12.4247 5.20959 12.4778 5.27977 12.5053C5.34249 12.5315 5.41237 12.5339 5.47668 12.512L5.4889 12.5081C5.49416 12.5063 5.49984 12.506 5.50527 12.5073C5.51068 12.5086 5.51564 12.5115 5.51954 12.5155L5.66072 12.6587C5.67181 12.67 5.68515 12.6786 5.69985 12.684C5.71455 12.6894 5.73019 12.6915 5.74576 12.6901C5.76131 12.6887 5.77638 12.6838 5.78988 12.6758C5.8034 12.6678 5.81504 12.6569 5.824 12.6438C5.83742 12.6216 5.8432 12.5954 5.84045 12.5695C5.8377 12.5435 5.82655 12.5192 5.80878 12.5005L5.68408 12.3739C5.6788 12.3686 5.67552 12.3615 5.67486 12.3539C5.67419 12.3463 5.67617 12.3388 5.68045 12.3325L5.69051 12.3183C5.80282 12.1755 6.03226 12.1501 6.23061 12.1282C6.35619 12.1143 6.46931 12.1018 6.53235 12.0617C6.54908 12.0503 6.56069 12.0326 6.56473 12.0125C6.56873 11.9923 6.5648 11.9714 6.55379 11.9542C6.44666 11.7791 6.36479 11.2516 6.93452 11.1487C7.08451 11.1308 7.56767 11.228 7.59489 11.5704C7.59536 11.603 7.59228 11.6355 7.58567 11.6674C7.55783 11.7834 7.41726 11.8274 7.33885 11.8467C6.65878 12.0179 6.19683 12.69 6.73013 13.0695C6.82975 12.5753 7.08967 12.3078 7.5529 12.0937C7.56216 12.0895 7.57253 12.0885 7.58237 12.091C7.59223 12.0934 7.60099 12.0991 7.60733 12.1072C7.31098 12.3148 6.72883 12.9455 7.39906 13.4362C7.4252 13.0598 7.5201 12.6294 7.7618 12.3509C7.76806 12.3434 7.77689 12.3386 7.78648 12.3375C7.79607 12.3364 7.80571 12.3391 7.81345 12.345C7.8089 12.3686 7.804 12.3934 7.7989 12.4191C7.72363 12.7992 7.60596 13.3934 7.98742 13.6602C7.99085 13.6628 7.99458 13.6649 7.99856 13.6665C8.00236 13.6647 8.00602 13.6626 8.0095 13.6602C8.39102 13.3934 8.2731 12.7975 8.19805 12.4182C8.19303 12.3928 8.18817 12.3682 8.18369 12.345C8.19141 12.3391 8.20107 12.3364 8.21066 12.3375C8.22025 12.3386 8.22908 12.3434 8.23532 12.3509C8.47701 12.6294 8.57194 13.0598 8.59786 13.4362C9.26723 12.9455 8.68613 12.3148 8.38981 12.1072C8.39615 12.0991 8.40491 12.0934 8.41477 12.091C8.42461 12.0885 8.43498 12.0895 8.44424 12.0937C8.90747 12.3078 9.16739 12.5753 9.267 13.0695C9.80031 12.69 9.33836 12.0186 8.65829 11.8467C8.57986 11.8274 8.43931 11.7834 8.41144 11.6674C8.40486 11.6355 8.40178 11.603 8.40223 11.5704H8.40461C8.43182 11.228 8.91456 11.1308 9.06497 11.1487C9.63468 11.2516 9.55176 11.7799 9.44571 11.9542C9.44012 11.963 9.43634 11.9728 9.43454 11.9831C9.43274 11.9934 9.43296 12.0039 9.43522 12.0141C9.4375 12.0244 9.44173 12.034 9.44769 12.0425C9.45364 12.051 9.4612 12.0582 9.46992 12.0637C9.53367 12.1027 9.64573 12.1151 9.76985 12.1288C9.94567 12.1483 10.1457 12.1704 10.2668 12.2747C10.3712 12.3738 10.5095 12.4272 10.652 12.4234C10.7945 12.4195 10.9299 12.3588 11.0291 12.2542C11.1283 12.1496 11.1835 12.0094 11.1828 11.8638C11.182 11.7181 11.1255 11.5785 11.0253 11.4749C11.0229 11.4724 11.02 11.4705 11.0168 11.4693C11.0136 11.4682 11.0102 11.4678 11.0068 11.4683C11.0034 11.4688 11.0002 11.4701 10.9974 11.4721C10.9947 11.474 10.9923 11.4767 10.9908 11.4798Z" fill="#2B3141"/>
<path d="M6.8111 3.88331C6.79325 3.895 6.77239 3.90102 6.75121 3.9006H6.75033C6.726 3.90068 6.70229 3.89268 6.68279 3.8778C6.66331 3.86292 6.64907 3.84197 6.64223 3.8181C6.6354 3.79423 6.63632 3.76874 6.64491 3.74547C6.65347 3.72219 6.66922 3.70239 6.68975 3.68906C6.7103 3.67572 6.73451 3.66956 6.75877 3.67151C6.78303 3.67346 6.80604 3.68341 6.82426 3.69987C6.84251 3.71632 6.85503 3.73839 6.85994 3.76275C6.86485 3.78711 6.86189 3.81243 6.85148 3.83492C6.84299 3.85477 6.82895 3.87162 6.8111 3.88331Z" fill="#2B3141"/>
<path d="M4.56497 4.71331C4.88273 4.69426 5.10364 4.7571 5.23777 5.01062C5.23954 5.01393 5.24212 5.0167 5.24526 5.01869C5.24839 5.02067 5.25198 5.02179 5.25566 5.02195C5.25935 5.0221 5.26301 5.02128 5.26629 5.01957C5.26957 5.01785 5.27237 5.0153 5.2744 5.01216C5.4531 4.7479 5.44196 4.37045 5.25126 4.11452V4.11145C5.23645 4.08918 5.22644 4.06395 5.22192 4.03742C5.21739 4.01089 5.21845 3.98368 5.22501 3.9576C5.23158 3.93153 5.24351 3.90718 5.26001 3.88618C5.2765 3.86518 5.29719 3.84801 5.32069 3.83581L5.33105 3.83064C5.59611 3.69849 6.04379 3.4753 5.99219 3.71365C5.94012 3.94659 5.89726 4.26099 6.04724 4.45825C6.12803 4.54976 6.20902 4.58414 6.33801 4.60997C6.38978 4.62006 6.44238 4.62505 6.49505 4.62486H7.05214C7.07187 4.62501 7.09157 4.62362 7.11108 4.6207C7.3187 4.58917 7.45496 4.50116 7.64288 4.21961C7.6574 4.19737 7.67635 4.17851 7.69851 4.16429C7.72067 4.15006 7.74553 4.14079 7.77144 4.13707C7.84762 4.12958 7.92418 4.12658 8.00069 4.12809C8.07722 4.12658 8.15378 4.12958 8.22996 4.13707C8.25587 4.14079 8.28073 4.15006 8.30289 4.16429C8.32505 4.17851 8.344 4.19737 8.35852 4.21961C8.54644 4.50116 8.6827 4.58917 8.89032 4.6207C8.90983 4.62362 8.92953 4.62501 8.94926 4.62486H9.50632C9.55897 4.62506 9.6115 4.62007 9.66317 4.60997C9.79173 4.58414 9.87314 4.54976 9.95416 4.45825C10.1024 4.26121 10.0613 3.94659 10.0081 3.71277C9.95701 3.47725 10.3952 3.69423 10.6617 3.82615L10.6794 3.83494C10.7031 3.84703 10.724 3.86417 10.7407 3.88521C10.7573 3.90625 10.7694 3.9307 10.776 3.9569C10.7827 3.98311 10.7838 4.01046 10.7792 4.03712C10.7746 4.06378 10.7645 4.08913 10.7495 4.11145V4.11561C10.5586 4.37133 10.5474 4.74878 10.7263 5.01325C10.7284 5.01634 10.7312 5.01885 10.7344 5.02053C10.7377 5.02221 10.7413 5.02302 10.745 5.02286C10.7486 5.02271 10.7522 5.02161 10.7553 5.01965C10.7584 5.0177 10.761 5.01497 10.7628 5.01172C10.8971 4.75797 11.1178 4.69536 11.4356 4.7144C11.4403 4.7147 11.445 4.71338 11.4489 4.71065C11.4528 4.70792 11.4558 4.70394 11.4572 4.69934C11.4587 4.69473 11.4586 4.68976 11.457 4.68519C11.4554 4.68063 11.4524 4.67674 11.4484 4.67412C11.0763 4.42745 11.0799 4.36095 11.0877 4.21978L11.088 4.21435C11.0897 4.19464 11.0969 4.1677 11.1048 4.13771C11.1293 4.04579 11.1613 3.92529 11.0666 3.8969C10.5952 3.75918 10.4431 3.70379 10.1284 3.37276C9.94707 3.20024 9.71502 3.27424 9.74781 3.47413C9.75134 3.49441 9.75723 3.51418 9.76539 3.53302C9.78569 3.58302 9.80895 3.63171 9.83501 3.67884C9.8408 3.69022 10.2351 4.49853 9.57982 4.55239H9.56117V4.49656C9.561 4.48634 9.56278 4.47618 9.56646 4.46667C9.57014 4.45717 9.57562 4.4485 9.5826 4.44117C9.61933 4.40561 9.65133 4.36528 9.67774 4.32119C9.71099 4.26748 9.72491 4.20363 9.71717 4.14057C9.70302 4.02322 9.61217 3.93368 9.49949 3.90522L9.45254 3.89449C9.44869 3.89363 9.44471 3.89362 9.44085 3.89446C9.437 3.8953 9.43337 3.89696 9.43019 3.89934C9.42701 3.90172 9.42435 3.90476 9.42243 3.90827C9.42047 3.91177 9.41927 3.91566 9.41892 3.91967C9.40843 4.0204 9.38593 4.11944 9.35185 4.21457C9.33663 4.24588 9.32121 4.24588 9.29485 4.24588H9.21836C9.20687 4.24821 9.19493 4.24636 9.18464 4.24064C9.17435 4.23492 9.16634 4.2257 9.16201 4.21457C9.12693 4.11982 9.1043 4.02072 9.09474 3.91988C9.09439 3.91588 9.09321 3.91199 9.09131 3.90848C9.08938 3.90497 9.08675 3.90191 9.0836 3.89951C9.08044 3.89711 9.07684 3.89543 9.07298 3.89456C9.06913 3.89369 9.06517 3.89367 9.06132 3.89449L9.00944 3.90609C8.98138 3.91213 8.95431 3.92231 8.9291 3.9363C8.89781 3.95451 8.87042 3.97895 8.84854 4.00819C8.82666 4.03742 8.81076 4.07084 8.80177 4.10647C8.79276 4.14211 8.79088 4.17922 8.79619 4.21562C8.8015 4.25201 8.81391 4.28695 8.83269 4.31835C8.85938 4.3617 8.89062 4.40193 8.9259 4.43832C8.93914 4.45366 8.94673 4.47326 8.94733 4.49372V4.5594H8.91946C8.65121 4.53291 8.52328 4.31594 8.50723 4.10248V4.0103C8.50748 3.97632 8.5206 3.94375 8.54386 3.91945C8.60204 3.85866 8.65381 3.79181 8.69835 3.72C8.73145 3.66591 8.75313 3.60536 8.76199 3.54222C8.79627 3.29285 8.62677 3.07085 8.38188 3.0275C8.30089 3.01283 8.28782 3.02356 8.27367 3.10478C8.25375 3.2206 8.2186 3.4218 8.15969 3.54682C8.1361 3.59805 8.10761 3.59805 8.06648 3.59805H7.93577C7.89486 3.59805 7.86635 3.59805 7.84279 3.54682C7.78366 3.4218 7.74851 3.2206 7.7288 3.10478C7.71466 3.02356 7.69924 3.01174 7.6206 3.0275C7.37377 3.07085 7.20428 3.29285 7.23878 3.54222C7.24735 3.60534 7.2688 3.66591 7.30177 3.72C7.34623 3.79181 7.39793 3.85866 7.45604 3.91945C7.47937 3.94371 7.49259 3.97629 7.49289 4.0103V4.10357C7.47682 4.31704 7.34891 4.534 7.08066 4.56049H7.05279V4.49481C7.0534 4.47436 7.06096 4.45476 7.07422 4.43942C7.10942 4.40298 7.14069 4.36275 7.16743 4.31944C7.18638 4.28803 7.19898 4.25303 7.20441 4.21653C7.20984 4.18004 7.20804 4.1428 7.19908 4.10704C7.19011 4.07128 7.17419 4.03773 7.15226 4.0084C7.13033 3.97906 7.10284 3.95454 7.07145 3.9363C7.04639 3.92274 7.01965 3.91272 6.99193 3.90653L6.94008 3.89492C6.93623 3.89411 6.93225 3.89413 6.92842 3.895C6.92456 3.89586 6.92096 3.89755 6.9178 3.89995C6.91465 3.90235 6.91202 3.90541 6.91009 3.90892C6.90816 3.91243 6.90701 3.91632 6.90666 3.92032C6.89717 4.02096 6.87477 4.11989 6.84004 4.21457C6.83569 4.2257 6.8277 4.23492 6.81739 4.24064C6.8071 4.24636 6.79518 4.24821 6.78369 4.24588H6.70655C6.68019 4.24588 6.66369 4.24588 6.64955 4.21457C6.61563 4.11942 6.59324 4.02038 6.5829 3.91967C6.58253 3.91567 6.5813 3.9118 6.57935 3.90832C6.5774 3.90483 6.57474 3.9018 6.57159 3.89943C6.56841 3.89706 6.56478 3.89539 6.56095 3.89454C6.55709 3.89369 6.55311 3.89367 6.54928 3.89449L6.50214 3.90522C6.44634 3.91662 6.39534 3.94534 6.35611 3.98747C6.31688 4.02959 6.29132 4.08306 6.28295 4.14057C6.27529 4.20362 6.28924 4.26744 6.32236 4.32119C6.34887 4.36528 6.38094 4.40562 6.41772 4.44117C6.4247 4.4485 6.43019 4.45717 6.43387 4.46667C6.43755 4.47618 6.43933 4.48634 6.43915 4.49656V4.55173H6.42072C5.7655 4.49788 6.15975 3.68956 6.16554 3.67818C6.19152 3.63101 6.21478 3.58232 6.23516 3.53237C6.24312 3.51345 6.24901 3.4937 6.25274 3.47347C6.28551 3.27359 6.05348 3.19958 5.8722 3.3721C5.55745 3.70314 5.40511 3.75853 4.93394 3.89624C4.83897 3.92467 4.87117 4.04548 4.89569 4.13744C4.90364 4.16727 4.91078 4.19407 4.91251 4.2137L4.91281 4.21912C4.9206 4.36008 4.92427 4.42658 4.55212 4.67346C4.54834 4.67616 4.5455 4.68003 4.54404 4.6845C4.54259 4.68897 4.54258 4.6938 4.54402 4.69828C4.54547 4.70275 4.54829 4.70663 4.55206 4.70934C4.55583 4.71205 4.56037 4.71344 4.56497 4.71331Z" fill="#2B3141"/>
<path d="M9.29282 3.89152C9.27912 3.89742 9.2644 3.9005 9.24953 3.90059H9.24888C9.22692 3.90033 9.20549 3.89346 9.18732 3.88084C9.16914 3.86822 9.15502 3.85041 9.14669 3.82963C9.13837 3.80885 9.13622 3.78603 9.1405 3.76401C9.14478 3.74199 9.15532 3.72174 9.17082 3.70581C9.18629 3.68987 9.20602 3.67895 9.22753 3.6744C9.24906 3.66985 9.27141 3.67188 9.29179 3.68023C9.3122 3.68859 9.32974 3.70289 9.34221 3.72137C9.35471 3.73984 9.36159 3.76167 9.36202 3.78411C9.36214 3.79931 9.35931 3.81439 9.3537 3.82847C9.34812 3.84255 9.33986 3.85537 9.32942 3.86619C9.31895 3.87701 9.30654 3.88562 9.29282 3.89152Z" fill="#2B3141"/>
</g>
<g clip-path="url(#clip1_5689_100059)">
<path fill-rule="evenodd" clip-rule="evenodd" d="M8 16C12.4183 16 16 12.4183 16 8C16 3.58172 12.4183 0 8 0C3.58172 0 0 3.58172 0 8C0 12.4183 3.58172 16 8 16ZM7.99999 15.3333C12.0501 15.3333 15.3333 12.0501 15.3333 7.99999C15.3333 3.94991 12.0501 0.66666 7.99999 0.66666C3.94991 0.66666 0.66666 3.94991 0.66666 7.99999C0.66666 12.0501 3.94991 15.3333 7.99999 15.3333Z" fill="url(#paint0_linear_5689_100059)"/>
<circle cx="7.99984" cy="7.99984" r="7.33333" fill="url(#paint1_linear_5689_100059)"/>
</g>
</g>
<defs>
<linearGradient id="paint0_linear_5689_100059" x1="0" y1="0" x2="16" y2="16" gradientUnits="userSpaceOnUse">
<stop stop-color="white" stop-opacity="0.15"/>
<stop offset="1" stop-opacity="0.1"/>
</linearGradient>
<linearGradient id="paint1_linear_5689_100059" x1="-0.00016284" y1="-0.000162883" x2="15.9998" y2="15.9998" gradientUnits="userSpaceOnUse">
<stop offset="0.1475" stop-opacity="0.15"/>
<stop offset="0.500721" stop-color="white" stop-opacity="0"/>
<stop offset="0.852707" stop-color="white" stop-opacity="0.15"/>
</linearGradient>
<clipPath id="clip0_5689_100059">
<rect width="16" height="16" fill="white"/>
</clipPath>
<clipPath id="clip1_5689_100059">
<rect width="16" height="16" rx="8" fill="white"/>
</clipPath>
</defs>
</svg>
