<svg width="18" height="18" viewBox="0 0 18 18" fill="none" xmlns="http://www.w3.org/2000/svg">
<path d="M8.97396 1.6499C9.21632 1.6499 9.43488 1.79571 9.52795 2.01948L11.2718 6.2122L15.7982 6.57508C16.0398 6.59444 16.246 6.75725 16.3209 6.98775C16.3958 7.21824 16.3246 7.47116 16.1406 7.62883L12.6919 10.5829L13.7456 14.9999C13.8018 15.2357 13.7107 15.4821 13.5146 15.6246C13.3185 15.767 13.056 15.7775 12.8492 15.6512L8.97396 13.2842L5.09874 15.6512C4.89191 15.7775 4.62939 15.767 4.43332 15.6246C4.23725 15.4821 4.14613 15.2357 4.20236 14.9999L5.25598 10.5829L1.80735 7.62883C1.62329 7.47116 1.55216 7.21824 1.62705 6.98775C1.70194 6.75725 1.90815 6.59444 2.14973 6.57508L6.67612 6.2122L8.41997 2.01948C8.51304 1.79571 8.7316 1.6499 8.97396 1.6499Z" fill="#1A1A1F"/>
</svg>
