<svg width="29" height="29" viewBox="0 0 29 29" fill="none" xmlns="http://www.w3.org/2000/svg">
<g clip-path="url(#clip0_5670_99108)">
<mask id="mask0_5670_99108" style="mask-type:alpha" maskUnits="userSpaceOnUse" x="0" y="0" width="29" height="29">
<circle cx="14.5" cy="14.5" r="14.5" fill="white"/>
</mask>
<g mask="url(#mask0_5670_99108)">
<rect width="29" height="29" fill="#E30A17"/>
<path d="M17.415 18.468C16.2034 20.0932 14.2663 21.1457 12.0833 21.1457C8.41294 21.1457 5.4375 18.1702 5.4375 14.4998C5.4375 10.8294 8.41294 7.854 12.0833 7.854C14.2663 7.854 16.2034 8.90648 17.415 10.5317C16.4671 9.56011 15.1723 8.96164 13.7448 8.96164C10.8391 8.96164 8.48351 11.4412 8.48351 14.4998C8.48351 17.5585 10.8391 20.038 13.7448 20.038C15.1723 20.038 16.4671 19.4396 17.415 18.468Z" fill="#F5F5F5"/>
<path d="M19.8285 14.9822L17.5208 14.1978L19.8285 13.4133V10.8748L21.2548 12.9285L23.5625 12.1441L22.1362 14.1978L23.5625 16.2514L21.2548 15.467L19.8285 17.5207V14.9822Z" fill="#F5F5F5"/>
</g>
<g clip-path="url(#clip1_5670_99108)">
<path fill-rule="evenodd" clip-rule="evenodd" d="M14.5 29C22.5081 29 29 22.5081 29 14.5C29 6.49187 22.5081 0 14.5 0C6.49187 0 0 6.49187 0 14.5C0 22.5081 6.49187 29 14.5 29ZM14.5 27.7917C21.8408 27.7917 27.7917 21.8408 27.7917 14.5C27.7917 7.15921 21.8408 1.20833 14.5 1.20833C7.15921 1.20833 1.20833 7.15921 1.20833 14.5C1.20833 21.8408 7.15921 27.7917 14.5 27.7917Z" fill="url(#paint0_linear_5670_99108)"/>
<circle cx="14.5002" cy="14.5002" r="13.2917" fill="url(#paint1_linear_5670_99108)"/>
</g>
</g>
<defs>
<linearGradient id="paint0_linear_5670_99108" x1="0" y1="0" x2="29" y2="29" gradientUnits="userSpaceOnUse">
<stop stop-color="white" stop-opacity="0.15"/>
<stop offset="1" stop-opacity="0.1"/>
</linearGradient>
<linearGradient id="paint1_linear_5670_99108" x1="0.0001627" y1="0.000162622" x2="29.0002" y2="29.0002" gradientUnits="userSpaceOnUse">
<stop offset="0.1475" stop-opacity="0.15"/>
<stop offset="0.500721" stop-color="white" stop-opacity="0"/>
<stop offset="0.852707" stop-color="white" stop-opacity="0.15"/>
</linearGradient>
<clipPath id="clip0_5670_99108">
<rect width="29" height="29" fill="white"/>
</clipPath>
<clipPath id="clip1_5670_99108">
<rect width="29" height="29" rx="14.5" fill="white"/>
</clipPath>
</defs>
</svg>
