<svg width="29" height="29" viewBox="0 0 29 29" fill="none" xmlns="http://www.w3.org/2000/svg">
<g clip-path="url(#clip0_5670_99138)">
<mask id="mask0_5670_99138" style="mask-type:alpha" maskUnits="userSpaceOnUse" x="0" y="0" width="29" height="29">
<circle cx="14.5" cy="14.5" r="14.5" fill="white"/>
</mask>
<g mask="url(#mask0_5670_99138)">
<rect width="29" height="29" fill="#F5F5F5"/>
<path d="M0 3.625H29V7.25H0V3.625Z" fill="#AB2A41"/>
<path d="M0 10.875H29V14.5H0V10.875Z" fill="#AB2A41"/>
<path d="M29 18.125H0V21.75H29V18.125Z" fill="#AB2A41"/>
<path d="M0 25.375H29V29H0V25.375Z" fill="#AB2A41"/>
<path d="M14.5 0H0V14.5H14.5V0Z" fill="#13388E"/>
<path d="M2.59324 2.59326L3.02126 1.2085L3.44882 2.59326H4.8335L3.7131 3.44873L4.1412 4.8335L3.02126 3.97795L1.90087 4.8335L2.32889 3.44873L1.2085 2.59326H2.59324Z" fill="#F5F5F5"/>
<path d="M6.82238 2.59326L7.25039 1.2085L7.67794 2.59326H9.06266L7.94222 3.44873L8.3703 4.8335L7.25039 3.97795L6.13002 4.8335L6.55803 3.44873L5.43766 2.59326H6.82238Z" fill="#F5F5F5"/>
<path d="M11.0515 2.59326L11.4796 1.2085L11.9071 2.59326H13.2918L12.1714 3.44873L12.5995 4.8335L11.4796 3.97795L10.3591 4.8335L10.7872 3.44873L9.66683 2.59326H11.0515Z" fill="#F5F5F5"/>
<path d="M2.59324 6.82243L3.02126 5.43766L3.44882 6.82243H4.8335L3.7131 7.67789L4.1412 9.06266L3.02126 8.20712L1.90087 9.06266L2.32889 7.67789L1.2085 6.82243H2.59324Z" fill="#F5F5F5"/>
<path d="M6.82238 6.82243L7.25039 5.43766L7.67794 6.82243H9.06266L7.94222 7.67789L8.3703 9.06266L7.25039 8.20712L6.13002 9.06266L6.55803 7.67789L5.43766 6.82243H6.82238Z" fill="#F5F5F5"/>
<path d="M11.0515 6.82243L11.4796 5.43766L11.9071 6.82243H13.2918L12.1714 7.67789L12.5995 9.06266L11.4796 8.20712L10.3591 9.06266L10.7872 7.67789L9.66683 6.82243H11.0515Z" fill="#F5F5F5"/>
<path d="M3.02126 9.66683L2.59324 11.0516H1.2085L2.32889 11.9071L1.90087 13.2918L3.02126 12.4363L4.1412 13.2918L3.7131 11.9071L4.8335 11.0516H3.44882L3.02126 9.66683Z" fill="#F5F5F5"/>
<path d="M7.25039 9.66683L6.82238 11.0516H5.43766L6.55803 11.9071L6.13002 13.2918L7.25039 12.4363L8.3703 13.2918L7.94222 11.9071L9.06266 11.0516H7.67794L7.25039 9.66683Z" fill="#F5F5F5"/>
<path d="M11.4796 9.66683L11.0515 11.0516H9.66683L10.7872 11.9071L10.3591 13.2918L11.4796 12.4363L12.5995 13.2918L12.1714 11.9071L13.2918 11.0516H11.9071L11.4796 9.66683Z" fill="#F5F5F5"/>
</g>
<g clip-path="url(#clip1_5670_99138)">
<path fill-rule="evenodd" clip-rule="evenodd" d="M14.5 29C22.5081 29 29 22.5081 29 14.5C29 6.49187 22.5081 0 14.5 0C6.49187 0 0 6.49187 0 14.5C0 22.5081 6.49187 29 14.5 29ZM14.5 27.7917C21.8408 27.7917 27.7917 21.8408 27.7917 14.5C27.7917 7.15923 21.8408 1.20835 14.5 1.20835C7.15923 1.20835 1.20835 7.15923 1.20835 14.5C1.20835 21.8408 7.15923 27.7917 14.5 27.7917Z" fill="url(#paint0_linear_5670_99138)"/>
<circle cx="14.5002" cy="14.5002" r="13.2917" fill="url(#paint1_linear_5670_99138)"/>
</g>
</g>
<defs>
<linearGradient id="paint0_linear_5670_99138" x1="0" y1="0" x2="29" y2="29" gradientUnits="userSpaceOnUse">
<stop stop-color="white" stop-opacity="0.15"/>
<stop offset="1" stop-opacity="0.1"/>
</linearGradient>
<linearGradient id="paint1_linear_5670_99138" x1="0.0001627" y1="0.000162622" x2="29.0002" y2="29.0002" gradientUnits="userSpaceOnUse">
<stop offset="0.1475" stop-opacity="0.15"/>
<stop offset="0.500721" stop-color="white" stop-opacity="0"/>
<stop offset="0.852707" stop-color="white" stop-opacity="0.15"/>
</linearGradient>
<clipPath id="clip0_5670_99138">
<rect width="29" height="29" fill="white"/>
</clipPath>
<clipPath id="clip1_5670_99138">
<rect width="29" height="29" rx="14.5" fill="white"/>
</clipPath>
</defs>
</svg>
