<svg width="14" height="14" viewBox="0 0 14 14" fill="none" xmlns="http://www.w3.org/2000/svg">
<mask id="mask0_5670_99180" style="mask-type:alpha" maskUnits="userSpaceOnUse" x="0" y="0" width="14" height="14">
<ellipse cx="7" cy="7.00007" rx="7" ry="7.00007" fill="white"/>
</mask>
<g mask="url(#mask0_5670_99180)">
<rect width="14" height="14.0001" fill="#50AF95"/>
<path d="M7.8273 7.73782C7.78404 7.73782 7.53528 7.76048 7.00525 7.76048C6.57258 7.76048 6.28052 7.74915 6.17234 7.73782C4.52821 7.6585 3.30591 7.3639 3.30591 7.00129C3.30591 6.63869 4.52821 6.34409 6.17234 6.26477V7.43189C6.28052 7.44322 6.58338 7.45455 7.01605 7.45455C7.52444 7.45455 7.78404 7.43189 7.8273 7.43189V6.26477C9.47147 6.34409 10.6938 6.63869 10.6938 7.00129C10.6938 7.3639 9.46063 7.6585 7.8273 7.73782ZM7.8273 6.14014V5.09768H10.1096V3.5H3.8792V5.09768H6.17234V6.14014C4.31187 6.23079 2.9165 6.61604 2.9165 7.08062C2.9165 7.5452 4.31187 7.93045 6.17234 8.0211V11.3751H7.8273V8.0211C9.6878 7.93045 11.0832 7.5452 11.0832 7.08062C11.0723 6.62737 9.67697 6.23079 7.8273 6.14014Z" fill="white"/>
</g>
<g clip-path="url(#clip0_5670_99180)">
<path fill-rule="evenodd" clip-rule="evenodd" d="M7 14.0001C10.866 14.0001 14 10.8661 14 7.00007C14 3.13404 10.866 0 7 0C3.13401 0 0 3.13404 0 7.00007C0 10.8661 3.13401 14.0001 7 14.0001ZM7 13.4168C10.5438 13.4168 13.4167 10.5439 13.4167 7.00007C13.4167 3.45621 10.5438 0.583339 7 0.583339C3.45617 0.583339 0.583333 3.45621 0.583333 7.00007C0.583333 10.5439 3.45617 13.4168 7 13.4168Z" fill="url(#paint0_linear_5670_99180)"/>
<ellipse cx="7.00016" cy="7.00023" rx="6.41667" ry="6.41673" fill="url(#paint1_linear_5670_99180)"/>
</g>
<defs>
<linearGradient id="paint0_linear_5670_99180" x1="0" y1="0" x2="14.0001" y2="14" gradientUnits="userSpaceOnUse">
<stop stop-color="white" stop-opacity="0.15"/>
<stop offset="1" stop-opacity="0.1"/>
</linearGradient>
<linearGradient id="paint1_linear_5670_99180" x1="0.000162675" y1="0.000156958" x2="14.0003" y2="14.0002" gradientUnits="userSpaceOnUse">
<stop offset="0.1475" stop-opacity="0.15"/>
<stop offset="0.500721" stop-color="white" stop-opacity="0"/>
<stop offset="0.852707" stop-color="white" stop-opacity="0.15"/>
</linearGradient>
<clipPath id="clip0_5670_99180">
<rect width="14" height="14.0001" rx="7" fill="white"/>
</clipPath>
</defs>
</svg>
