<svg width="20" height="28" viewBox="0 0 20 28" fill="none" xmlns="http://www.w3.org/2000/svg">
<path d="M2.37109 11.6987H16.0127C16.6605 11.6987 17.1895 12.2277 17.1895 12.8755V23.3696C17.1892 24.0172 16.6603 24.5454 16.0127 24.5454H1.95996C1.54053 24.5452 1.19434 24.1993 1.19434 23.7798V12.8755C1.19434 12.2277 1.72333 11.6987 2.37109 11.6987Z" fill="#FFC759"/>
<path d="M2.37109 11.6987H16.0127C16.6605 11.6987 17.1895 12.2277 17.1895 12.8755V23.3696C17.1892 24.0172 16.6603 24.5454 16.0127 24.5454H1.95996C1.54053 24.5452 1.19434 24.1993 1.19434 23.7798V12.8755C1.19434 12.2277 1.72333 11.6987 2.37109 11.6987Z" fill="url(#paint0_radial_811_37480)"/>
<path d="M2.37109 11.6987H16.0127C16.6605 11.6987 17.1895 12.2277 17.1895 12.8755V23.3696C17.1892 24.0172 16.6603 24.5454 16.0127 24.5454H1.95996C1.54053 24.5452 1.19434 24.1993 1.19434 23.7798V12.8755C1.19434 12.2277 1.72333 11.6987 2.37109 11.6987Z" stroke="url(#paint1_linear_811_37480)"/>
<path fill-rule="evenodd" clip-rule="evenodd" d="M11.8034 26.4829L10.8681 27.3726C10.4461 27.7718 9.77312 27.7604 9.3739 27.3497C9.18 27.1444 9.07734 26.8707 9.08875 26.5969L9.11156 15.0196C9.13437 14.4379 9.62484 13.9702 10.2066 13.9816H13.4117C13.9934 13.9702 14.4839 14.4379 14.5067 15.0196L14.5295 26.5969C14.5409 26.8707 14.4497 27.1444 14.2444 27.3497C13.8451 27.7718 13.1722 27.7832 12.7501 27.3726L11.8148 26.4829H11.8034Z" fill="#FFC759"/>
<path fill-rule="evenodd" clip-rule="evenodd" d="M11.8034 26.4829L10.8681 27.3726C10.4461 27.7718 9.77312 27.7604 9.3739 27.3497C9.18 27.1444 9.07734 26.8707 9.08875 26.5969L9.11156 15.0196C9.13437 14.4379 9.62484 13.9702 10.2066 13.9816H13.4117C13.9934 13.9702 14.4839 14.4379 14.5067 15.0196L14.5295 26.5969C14.5409 26.8707 14.4497 27.1444 14.2444 27.3497C13.8451 27.7718 13.1722 27.7832 12.7501 27.3726L11.8148 26.4829H11.8034Z" fill="url(#paint2_linear_811_37480)" style="mix-blend-mode:color-burn"/>
<path d="M2.29102 1.18213H18.0654C18.6767 1.18213 19.1738 1.68608 19.1738 2.29053V21.3726C19.1738 21.9495 18.7102 22.4388 18.1299 22.4702H2.31348C2.05577 22.4702 1.71097 22.4976 1.38672 22.6069C1.32215 22.6287 1.25561 22.6557 1.18848 22.687L1.18262 21.3706V2.29053C1.18262 1.71754 1.62538 1.2449 2.17871 1.18799L2.29102 1.18213Z" fill="#FFC759"/>
<path d="M2.29102 1.18213H18.0654C18.6767 1.18213 19.1738 1.68608 19.1738 2.29053V21.3726C19.1738 21.9495 18.7102 22.4388 18.1299 22.4702H2.31348C2.05577 22.4702 1.71097 22.4976 1.38672 22.6069C1.32215 22.6287 1.25561 22.6557 1.18848 22.687L1.18262 21.3706V2.29053C1.18262 1.71754 1.62538 1.2449 2.17871 1.18799L2.29102 1.18213Z" fill="url(#paint3_radial_811_37480)"/>
<path d="M2.29102 1.18213H18.0654C18.6767 1.18213 19.1738 1.68608 19.1738 2.29053V21.3726C19.1738 21.9495 18.7102 22.4388 18.1299 22.4702H2.31348C2.05577 22.4702 1.71097 22.4976 1.38672 22.6069C1.32215 22.6287 1.25561 22.6557 1.18848 22.687L1.18262 21.3706V2.29053C1.18262 1.71754 1.62538 1.2449 2.17871 1.18799L2.29102 1.18213Z" stroke="url(#paint4_linear_811_37480)"/>
<path d="M4.41199 7.62867C3.98996 7.62867 3.65918 7.28648 3.65918 6.87586C3.65918 6.45383 4.00137 6.12305 4.41199 6.12305H15.9551C16.3771 6.12305 16.7079 6.46523 16.7079 6.87586C16.7079 7.29789 16.3657 7.62867 15.9551 7.62867H4.41199Z" fill="#FEFEFE"/>
<defs>
<radialGradient id="paint0_radial_811_37480" cx="0" cy="0" r="1" gradientTransform="matrix(6.25 -21.25 20.4267 9.68823 4.00049 23.4997)" gradientUnits="userSpaceOnUse">
<stop stop-color="#FFBA30"/>
<stop offset="0.433121" stop-color="#FFC759"/>
<stop offset="1" stop-color="white" stop-opacity="0.72"/>
</radialGradient>
<linearGradient id="paint1_linear_811_37480" x1="9.25877" y1="25.1117" x2="9.25943" y2="13.9577" gradientUnits="userSpaceOnUse">
<stop stop-color="#FFBA30" stop-opacity="0"/>
<stop offset="1" stop-color="white" stop-opacity="0.2"/>
</linearGradient>
<linearGradient id="paint2_linear_811_37480" x1="11.8092" y1="13.9814" x2="11.8092" y2="27.6735" gradientUnits="userSpaceOnUse">
<stop stop-opacity="0.04"/>
<stop offset="1" stop-opacity="0.25"/>
</linearGradient>
<radialGradient id="paint3_radial_811_37480" cx="0" cy="0" r="1" gradientTransform="matrix(-10.75 -26.25 18.7305 -12.6694 11.2502 19.9996)" gradientUnits="userSpaceOnUse">
<stop stop-color="#FFBA30"/>
<stop offset="0.433121" stop-color="#FFC759"/>
<stop offset="1" stop-color="white" stop-opacity="0.72"/>
</radialGradient>
<linearGradient id="paint4_linear_811_37480" x1="10.0002" y1="0.499634" x2="9.99842" y2="19.7496" gradientUnits="userSpaceOnUse">
<stop stop-color="#FFBA30" stop-opacity="0"/>
<stop offset="1" stop-color="white" stop-opacity="0.4"/>
</linearGradient>
</defs>
</svg>
