<svg width="47" height="46" viewBox="0 0 47 46" fill="none" xmlns="http://www.w3.org/2000/svg">
<path d="M27.7166 25.4915C27.7166 26.3383 28.4031 27.0248 29.2499 27.0248C30.0967 27.0248 30.7832 26.3383 30.7832 25.4915V13.9915C30.7832 13.1446 30.0967 12.4581 29.2499 12.4581C28.4031 12.4581 27.7166 13.1446 27.7166 13.9915V25.4915Z" fill="#FF7A7C"/>
<path d="M27.7166 25.4915C27.7166 26.3383 28.4031 27.0248 29.2499 27.0248C30.0967 27.0248 30.7832 26.3383 30.7832 25.4915V13.9915C30.7832 13.1446 30.0967 12.4581 29.2499 12.4581C28.4031 12.4581 27.7166 13.1446 27.7166 13.9915V25.4915Z" fill="url(#paint0_linear_867_48114)" style="mix-blend-mode:color-burn"/>
<path d="M23.4999 27.0248C22.6531 27.0248 21.9666 26.3383 21.9666 25.4915V17.8247C21.9666 16.9779 22.6531 16.2914 23.4999 16.2914C24.3467 16.2914 25.0332 16.9779 25.0332 17.8247V25.4915C25.0332 26.3383 24.3467 27.0248 23.4999 27.0248Z" fill="#FF7A7C"/>
<path d="M23.4999 27.0248C22.6531 27.0248 21.9666 26.3383 21.9666 25.4915V17.8247C21.9666 16.9779 22.6531 16.2914 23.4999 16.2914C24.3467 16.2914 25.0332 16.9779 25.0332 17.8247V25.4915C25.0332 26.3383 24.3467 27.0248 23.4999 27.0248Z" fill="url(#paint1_linear_867_48114)" style="mix-blend-mode:color-burn"/>
<path d="M16.2166 25.4915C16.2166 26.3383 16.9031 27.0248 17.7499 27.0248C18.5967 27.0248 19.2832 26.3383 19.2832 25.4915V21.6581C19.2832 20.8113 18.5967 20.1248 17.7499 20.1248C16.9031 20.1248 16.2166 20.8113 16.2166 21.6581V25.4915Z" fill="#FF7A7C"/>
<path d="M16.2166 25.4915C16.2166 26.3383 16.9031 27.0248 17.7499 27.0248C18.5967 27.0248 19.2832 26.3383 19.2832 25.4915V21.6581C19.2832 20.8113 18.5967 20.1248 17.7499 20.1248C16.9031 20.1248 16.2166 20.8113 16.2166 21.6581V25.4915Z" fill="url(#paint2_linear_867_48114)" style="mix-blend-mode:color-burn"/>
<path fill-rule="evenodd" clip-rule="evenodd" d="M10.0832 4.7915C7.11929 4.7915 4.71655 7.19424 4.71655 10.1582V29.3248C4.71655 32.2888 7.11929 34.6915 10.0832 34.6915H12.3832V39.8994C12.3832 41.6069 14.4477 42.4621 15.6552 41.2547L21.5447 35.3652C21.976 34.9338 22.561 34.6915 23.171 34.6915H36.9166C39.8805 34.6915 42.2832 32.2888 42.2832 29.3248V10.1582C42.2832 7.19424 39.8805 4.7915 36.9166 4.7915H10.0832ZM7.78322 10.1582C7.78322 8.88792 8.81296 7.85817 10.0832 7.85817H36.9166C38.1868 7.85817 39.2166 8.88792 39.2166 10.1582V29.3248C39.2166 30.5951 38.1868 31.6248 36.9166 31.6248H23.171C21.7477 31.6248 20.3827 32.1903 19.3762 33.1967L15.4499 37.123V31.6248H10.0832C8.81296 31.6248 7.78322 30.5951 7.78322 29.3248V10.1582Z" fill="#FF7A7C"/>
<path fill-rule="evenodd" clip-rule="evenodd" d="M10.0832 4.7915C7.11929 4.7915 4.71655 7.19424 4.71655 10.1582V29.3248C4.71655 32.2888 7.11929 34.6915 10.0832 34.6915H12.3832V39.8994C12.3832 41.6069 14.4477 42.4621 15.6552 41.2547L21.5447 35.3652C21.976 34.9338 22.561 34.6915 23.171 34.6915H36.9166C39.8805 34.6915 42.2832 32.2888 42.2832 29.3248V10.1582C42.2832 7.19424 39.8805 4.7915 36.9166 4.7915H10.0832ZM7.78322 10.1582C7.78322 8.88792 8.81296 7.85817 10.0832 7.85817H36.9166C38.1868 7.85817 39.2166 8.88792 39.2166 10.1582V29.3248C39.2166 30.5951 38.1868 31.6248 36.9166 31.6248H23.171C21.7477 31.6248 20.3827 32.1903 19.3762 33.1967L15.4499 37.123V31.6248H10.0832C8.81296 31.6248 7.78322 30.5951 7.78322 29.3248V10.1582Z" fill="url(#paint3_linear_867_48114)" style="mix-blend-mode:color-burn"/>
<defs>
<linearGradient id="paint0_linear_867_48114" x1="23.4999" y1="4.7915" x2="23.4999" y2="41.8199" gradientUnits="userSpaceOnUse">
<stop stop-opacity="0.04"/>
<stop offset="1" stop-opacity="0.25"/>
</linearGradient>
<linearGradient id="paint1_linear_867_48114" x1="23.4999" y1="4.7915" x2="23.4999" y2="41.8199" gradientUnits="userSpaceOnUse">
<stop stop-opacity="0.04"/>
<stop offset="1" stop-opacity="0.25"/>
</linearGradient>
<linearGradient id="paint2_linear_867_48114" x1="23.4999" y1="4.7915" x2="23.4999" y2="41.8199" gradientUnits="userSpaceOnUse">
<stop stop-opacity="0.04"/>
<stop offset="1" stop-opacity="0.25"/>
</linearGradient>
<linearGradient id="paint3_linear_867_48114" x1="23.4999" y1="4.7915" x2="23.4999" y2="41.8199" gradientUnits="userSpaceOnUse">
<stop stop-opacity="0.04"/>
<stop offset="1" stop-opacity="0.25"/>
</linearGradient>
</defs>
</svg>
