<svg width="28" height="28" viewBox="0 0 28 28" fill="none" xmlns="http://www.w3.org/2000/svg">
<path d="M14 3.7334C13.4846 3.7334 13.0667 4.15127 13.0667 4.66673L13.0667 23.3334C13.0667 23.8489 13.4846 24.2667 14.0001 24.2667C14.5155 24.2667 14.9334 23.8489 14.9334 23.3334L14.9334 4.66673C14.9334 4.15127 14.5155 3.7334 14 3.7334Z" fill="#FF529D"/>
<path d="M14 3.7334C13.4846 3.7334 13.0667 4.15127 13.0667 4.66673L13.0667 23.3334C13.0667 23.8489 13.4846 24.2667 14.0001 24.2667C14.5155 24.2667 14.9334 23.8489 14.9334 23.3334L14.9334 4.66673C14.9334 4.15127 14.5155 3.7334 14 3.7334Z" fill="url(#paint0_linear_461_58318)" style="mix-blend-mode:color-burn"/>
<path d="M18.6667 13.0667C18.1513 13.0667 17.7334 13.4846 17.7334 14.0001L17.7334 19.8334C17.7334 20.3489 18.1513 20.7667 18.6667 20.7667C19.1822 20.7667 19.6001 20.3489 19.6001 19.8334L19.6001 14.0001C19.6001 13.4846 19.1822 13.0667 18.6667 13.0667Z" fill="#FF529D"/>
<path d="M18.6667 13.0667C18.1513 13.0667 17.7334 13.4846 17.7334 14.0001L17.7334 19.8334C17.7334 20.3489 18.1513 20.7667 18.6667 20.7667C19.1822 20.7667 19.6001 20.3489 19.6001 19.8334L19.6001 14.0001C19.6001 13.4846 19.1822 13.0667 18.6667 13.0667Z" fill="url(#paint1_linear_461_58318)" style="mix-blend-mode:color-burn"/>
<path d="M10.2666 8.16673C10.2666 7.65127 9.84874 7.2334 9.33328 7.2334C8.81781 7.2334 8.39994 7.65127 8.39994 8.16673V14.0001C8.39994 14.5155 8.81781 14.9334 9.33328 14.9334C9.84874 14.9334 10.2666 14.5155 10.2666 14.0001V8.16673Z" fill="#FF529D"/>
<path d="M10.2666 8.16673C10.2666 7.65127 9.84874 7.2334 9.33328 7.2334C8.81781 7.2334 8.39994 7.65127 8.39994 8.16673V14.0001C8.39994 14.5155 8.81781 14.9334 9.33328 14.9334C9.84874 14.9334 10.2666 14.5155 10.2666 14.0001V8.16673Z" fill="url(#paint2_linear_461_58318)" style="mix-blend-mode:color-burn"/>
<path d="M23.3334 13.0667C22.8179 13.0667 22.4001 13.4846 22.4001 14.0001V16.3334C22.4001 16.8489 22.8179 17.2667 23.3334 17.2667C23.8489 17.2667 24.2667 16.8489 24.2667 16.3334V14.0001C24.2667 13.4846 23.8489 13.0667 23.3334 13.0667Z" fill="#FF529D"/>
<path d="M23.3334 13.0667C22.8179 13.0667 22.4001 13.4846 22.4001 14.0001V16.3334C22.4001 16.8489 22.8179 17.2667 23.3334 17.2667C23.8489 17.2667 24.2667 16.8489 24.2667 16.3334V14.0001C24.2667 13.4846 23.8489 13.0667 23.3334 13.0667Z" fill="url(#paint3_linear_461_58318)" style="mix-blend-mode:color-burn"/>
<path d="M5.59994 11.6667C5.59994 11.1513 5.18208 10.7334 4.66661 10.7334C4.15115 10.7334 3.73328 11.1513 3.73328 11.6667V14.0001C3.73328 14.5155 4.15114 14.9334 4.66661 14.9334C5.18207 14.9334 5.59994 14.5155 5.59994 14.0001L5.59994 11.6667Z" fill="#FF529D"/>
<path d="M5.59994 11.6667C5.59994 11.1513 5.18208 10.7334 4.66661 10.7334C4.15115 10.7334 3.73328 11.1513 3.73328 11.6667V14.0001C3.73328 14.5155 4.15114 14.9334 4.66661 14.9334C5.18207 14.9334 5.59994 14.5155 5.59994 14.0001L5.59994 11.6667Z" fill="url(#paint4_linear_461_58318)" style="mix-blend-mode:color-burn"/>
<defs>
<linearGradient id="paint0_linear_461_58318" x1="14" y1="3.7334" x2="14" y2="24.2667" gradientUnits="userSpaceOnUse">
<stop stop-opacity="0.04"/>
<stop offset="1" stop-opacity="0.25"/>
</linearGradient>
<linearGradient id="paint1_linear_461_58318" x1="14" y1="3.7334" x2="14" y2="24.2667" gradientUnits="userSpaceOnUse">
<stop stop-opacity="0.04"/>
<stop offset="1" stop-opacity="0.25"/>
</linearGradient>
<linearGradient id="paint2_linear_461_58318" x1="14" y1="3.7334" x2="14" y2="24.2667" gradientUnits="userSpaceOnUse">
<stop stop-opacity="0.04"/>
<stop offset="1" stop-opacity="0.25"/>
</linearGradient>
<linearGradient id="paint3_linear_461_58318" x1="14" y1="3.7334" x2="14" y2="24.2667" gradientUnits="userSpaceOnUse">
<stop stop-opacity="0.04"/>
<stop offset="1" stop-opacity="0.25"/>
</linearGradient>
<linearGradient id="paint4_linear_461_58318" x1="14" y1="3.7334" x2="14" y2="24.2667" gradientUnits="userSpaceOnUse">
<stop stop-opacity="0.04"/>
<stop offset="1" stop-opacity="0.25"/>
</linearGradient>
</defs>
</svg>
