<svg width="49" height="48" viewBox="0 0 49 48" fill="none" xmlns="http://www.w3.org/2000/svg">
<path d="M33.6793 19.0811C34.2765 18.4297 34.2325 17.4176 33.5811 16.8205C32.9297 16.2234 31.9176 16.2674 31.3205 16.9188L21.4496 27.6869L17.6313 23.8685C17.0064 23.2437 15.9934 23.2437 15.3685 23.8685C14.7437 24.4934 14.7437 25.5064 15.3685 26.1313L20.3685 31.1313C20.6771 31.4399 21.0984 31.609 21.5347 31.5995C21.971 31.5901 22.3845 31.4028 22.6793 31.0811L33.6793 19.0811Z" fill="#1D9169"/>
<path fill-rule="evenodd" clip-rule="evenodd" d="M44.5 24C44.5 35.0457 35.5457 44 24.5 44C13.4543 44 4.5 35.0457 4.5 24C4.5 12.9543 13.4543 4 24.5 4C35.5457 4 44.5 12.9543 44.5 24ZM41.3 24C41.3 33.2784 33.7784 40.8 24.5 40.8C15.2216 40.8 7.7 33.2784 7.7 24C7.7 14.7216 15.2216 7.2 24.5 7.2C33.7784 7.2 41.3 14.7216 41.3 24Z" fill="#1D9169"/>
</svg>
