<svg width="24" height="25" viewBox="0 0 24 25" fill="none" xmlns="http://www.w3.org/2000/svg">
<path fill-rule="evenodd" clip-rule="evenodd" d="M15.9999 12.5166C15.9999 14.7257 14.2091 16.5166 11.9999 16.5166C9.79081 16.5166 7.99995 14.7257 7.99995 12.5166C7.99995 10.3075 9.79081 8.5166 11.9999 8.5166C14.2091 8.5166 15.9999 10.3075 15.9999 12.5166ZM14.4999 12.5166C14.4999 13.8973 13.3807 15.0166 11.9999 15.0166C10.6192 15.0166 9.49995 13.8973 9.49995 12.5166C9.49995 11.1359 10.6192 10.0166 11.9999 10.0166C13.3807 10.0166 14.4999 11.1359 14.4999 12.5166Z" fill="#1A1A1F"/>
<path fill-rule="evenodd" clip-rule="evenodd" d="M9.83907 3.32049C9.93255 2.85306 10.343 2.5166 10.8196 2.5166H13.18C13.6567 2.5166 14.0671 2.85306 14.1606 3.32049L14.5918 5.47652C14.7799 5.54577 14.9644 5.62235 15.145 5.70589L16.9747 4.48607C17.3714 4.22165 17.8995 4.27394 18.2365 4.61101L19.9056 6.28006C20.2427 6.61712 20.295 7.14524 20.0305 7.54186L18.8107 9.37163C18.8942 9.55217 18.9707 9.7366 19.04 9.92456L21.1961 10.3558C21.6635 10.4493 22 10.8597 22 11.3364V13.6968C22 14.1734 21.6635 14.5839 21.1961 14.6773L19.04 15.1086C18.9708 15.2966 18.8942 15.4811 18.8107 15.6616L20.0305 17.4913C20.2949 17.888 20.2426 18.4161 19.9055 18.7531L18.2365 20.4222C17.8994 20.7593 17.3713 20.8116 16.9747 20.5471L15.1449 19.3273C14.9643 19.4109 14.7799 19.4874 14.5918 19.5567L14.1606 21.7127C14.0671 22.1801 13.6567 22.5166 13.18 22.5166H10.8196C10.343 22.5166 9.93255 22.1801 9.83907 21.7127L9.40784 19.5566C9.2199 19.4874 9.03549 19.4108 8.85496 19.3273L7.02526 20.5471C6.62864 20.8116 6.10052 20.7593 5.76346 20.4222L4.09441 18.7531C3.75734 18.4161 3.70505 17.888 3.96946 17.4913L5.18924 15.6617C5.1057 15.4811 5.02914 15.2966 4.95989 15.1085L2.80388 14.6773C2.33646 14.5839 2 14.1734 2 13.6968V11.3364C2 10.8597 2.33646 10.4493 2.80388 10.3558L4.95992 9.92458C5.02915 9.73661 5.1057 9.55216 5.18921 9.37161L3.96938 7.54187C3.70497 7.14524 3.75726 6.61712 4.09433 6.28006L5.76338 4.61101C6.10044 4.27394 6.62856 4.22165 7.02518 4.48607L8.85491 5.70588C9.03546 5.62237 9.21988 5.54583 9.40784 5.4766L9.83907 3.32049ZM12.9998 4.0166L13.4732 6.6988C14.0427 6.84258 14.5798 7.06779 15.0715 7.36133L17.3032 5.79909L18.7175 7.2133L17.1552 9.44508C17.4487 9.93666 17.6739 10.4737 17.8177 11.0432L20.4999 11.5166V13.5166L17.8177 13.9899C17.6739 14.5594 17.4487 15.0966 17.1552 15.5882L18.7173 17.8199L17.3031 19.2341L15.0714 17.6719C14.5798 17.9654 14.0427 18.1906 13.4732 18.3344L12.9998 21.0166H10.9998L10.5265 18.3343C9.95704 18.1906 9.41998 17.9654 8.92842 17.6719L6.69665 19.2341L5.28243 17.8199L6.84468 15.5881C6.55115 15.0965 6.32594 14.5594 6.18216 13.9899L3.49995 13.5166V11.5166L6.18218 11.0432C6.32595 10.4738 6.55113 9.93672 6.84462 9.44517L5.28232 7.2133L6.69653 5.79909L8.92836 7.36137C9.41993 7.06785 9.95701 6.84264 10.5265 6.69886L10.9998 4.0166H12.9998Z" fill="#1A1A1F"/>
</svg>



