<svg width="47" height="46" viewBox="0 0 47 46" fill="none" xmlns="http://www.w3.org/2000/svg">
<path d="M28.1006 22.9999C28.1006 20.4594 26.0403 18.3992 23.4998 18.3992C20.9593 18.3992 18.8991 20.4594 18.8991 22.9999C18.8991 25.5404 20.9593 27.6007 23.4998 27.6007V30.6666C19.2657 30.6666 15.8332 27.2341 15.8332 22.9999C15.8332 18.7657 19.2657 15.3333 23.4998 15.3333C27.734 15.3333 31.1665 18.7657 31.1665 22.9999C31.1665 27.2341 27.734 30.6666 23.4998 30.6666V27.6007C26.0403 27.6007 28.1006 25.5404 28.1006 22.9999Z" fill="#FFC759"/>
<path d="M28.1006 22.9999C28.1006 20.4594 26.0403 18.3992 23.4998 18.3992C20.9593 18.3992 18.8991 20.4594 18.8991 22.9999C18.8991 25.5404 20.9593 27.6007 23.4998 27.6007V30.6666C19.2657 30.6666 15.8332 27.2341 15.8332 22.9999C15.8332 18.7657 19.2657 15.3333 23.4998 15.3333C27.734 15.3333 31.1665 18.7657 31.1665 22.9999C31.1665 27.2341 27.734 30.6666 23.4998 30.6666V27.6007C26.0403 27.6007 28.1006 25.5404 28.1006 22.9999Z" fill="url(#paint0_linear_753_215785)" style="mix-blend-mode:color-burn"/>
<path d="M21.9669 11.4999V3.83325C21.9669 2.98642 22.653 2.30029 23.4998 2.30029C24.3467 2.30029 25.0328 2.98642 25.0328 3.83325V11.4999C25.0328 12.3468 24.3467 13.0329 23.4998 13.0329C22.653 13.0329 21.9669 12.3468 21.9669 11.4999Z" fill="#FFC759"/>
<path d="M21.9669 11.4999V3.83325C21.9669 2.98642 22.653 2.30029 23.4998 2.30029C24.3467 2.30029 25.0328 2.98642 25.0328 3.83325V11.4999C25.0328 12.3468 24.3467 13.0329 23.4998 13.0329C22.653 13.0329 21.9669 12.3468 21.9669 11.4999Z" fill="url(#paint1_linear_753_215785)" style="mix-blend-mode:color-burn"/>
<path d="M21.9669 42.1666V34.4999C21.9669 33.6531 22.653 32.967 23.4998 32.967C24.3467 32.967 25.0328 33.6531 25.0328 34.4999V42.1666C25.0328 43.0134 24.3467 43.6995 23.4998 43.6995C22.653 43.6995 21.9669 43.0134 21.9669 42.1666Z" fill="#FFC759"/>
<path d="M21.9669 42.1666V34.4999C21.9669 33.6531 22.653 32.967 23.4998 32.967C24.3467 32.967 25.0328 33.6531 25.0328 34.4999V42.1666C25.0328 43.0134 24.3467 43.6995 23.4998 43.6995C22.653 43.6995 21.9669 43.0134 21.9669 42.1666Z" fill="url(#paint2_linear_753_215785)" style="mix-blend-mode:color-burn"/>
<path d="M35.0092 21.4576H42.6759C43.5227 21.4576 44.2088 22.1437 44.2088 22.9906C44.2088 23.8374 43.5227 24.5235 42.6759 24.5235H35.0092C34.1624 24.5235 33.4762 23.8374 33.4762 22.9906C33.4762 22.1437 34.1624 21.4576 35.0092 21.4576Z" fill="#FFC759"/>
<path d="M35.0092 21.4576H42.6759C43.5227 21.4576 44.2088 22.1437 44.2088 22.9906C44.2088 23.8374 43.5227 24.5235 42.6759 24.5235H35.0092C34.1624 24.5235 33.4762 23.8374 33.4762 22.9906C33.4762 22.1437 34.1624 21.4576 35.0092 21.4576Z" fill="url(#paint3_linear_753_215785)" style="mix-blend-mode:color-burn"/>
<path d="M4.34253 21.4576H12.0092C12.856 21.4576 13.5422 22.1437 13.5422 22.9906C13.5422 23.8374 12.856 24.5235 12.0092 24.5235H4.34253C3.49569 24.5235 2.80957 23.8374 2.80957 22.9906C2.80957 22.1437 3.49569 21.4576 4.34253 21.4576Z" fill="#FFC759"/>
<path d="M4.34253 21.4576H12.0092C12.856 21.4576 13.5422 22.1437 13.5422 22.9906C13.5422 23.8374 12.856 24.5235 12.0092 24.5235H4.34253C3.49569 24.5235 2.80957 23.8374 2.80957 22.9906C2.80957 22.1437 3.49569 21.4576 4.34253 21.4576Z" fill="url(#paint4_linear_753_215785)" style="mix-blend-mode:color-burn"/>
<path d="M32.7317 30.0404L36.2363 33.5451C36.8352 34.1439 36.8352 35.1142 36.2363 35.713C35.6375 36.3118 34.6672 36.3118 34.0684 35.713L30.5637 32.2083C29.9651 31.6095 29.965 30.6391 30.5637 30.0404C31.1625 29.4417 32.1328 29.4418 32.7317 30.0404Z" fill="#FFC759"/>
<path d="M32.7317 30.0404L36.2363 33.5451C36.8352 34.1439 36.8352 35.1142 36.2363 35.713C35.6375 36.3118 34.6672 36.3118 34.0684 35.713L30.5637 32.2083C29.9651 31.6095 29.965 30.6391 30.5637 30.0404C31.1625 29.4417 32.1328 29.4418 32.7317 30.0404Z" fill="url(#paint5_linear_753_215785)" style="mix-blend-mode:color-burn"/>
<path d="M12.9632 10.2729L16.4679 13.7776C17.0667 14.3764 17.0667 15.3467 16.4679 15.9455C15.8691 16.5443 14.8988 16.5443 14.3 15.9455L10.7953 12.4408C10.1967 11.842 10.1966 10.8717 10.7953 10.2729C11.394 9.67418 12.3644 9.67432 12.9632 10.2729Z" fill="#FFC759"/>
<path d="M12.9632 10.2729L16.4679 13.7776C17.0667 14.3764 17.0667 15.3467 16.4679 15.9455C15.8691 16.5443 14.8988 16.5443 14.3 15.9455L10.7953 12.4408C10.1967 11.842 10.1966 10.8717 10.7953 10.2729C11.394 9.67418 12.3644 9.67432 12.9632 10.2729Z" fill="url(#paint6_linear_753_215785)" style="mix-blend-mode:color-burn"/>
<path d="M30.5628 13.7765L34.0675 10.2718C34.6663 9.67302 35.6366 9.67302 36.2354 10.2718C36.8342 10.8706 36.8342 11.841 36.2354 12.4398L32.7307 15.9444C32.1319 16.543 31.1615 16.5432 30.5628 15.9444C29.9641 15.3457 29.9642 14.3753 30.5628 13.7765Z" fill="#FFC759"/>
<path d="M30.5628 13.7765L34.0675 10.2718C34.6663 9.67302 35.6366 9.67302 36.2354 10.2718C36.8342 10.8706 36.8342 11.841 36.2354 12.4398L32.7307 15.9444C32.1319 16.543 31.1615 16.5432 30.5628 15.9444C29.9641 15.3457 29.9642 14.3753 30.5628 13.7765Z" fill="url(#paint7_linear_753_215785)" style="mix-blend-mode:color-burn"/>
<path d="M10.7962 33.5459L14.3009 30.0412C14.8997 29.4424 15.87 29.4424 16.4689 30.0412C17.0677 30.64 17.0677 31.6103 16.4689 32.2091L12.9642 35.7138C12.3653 36.3124 11.395 36.3126 10.7962 35.7138C10.1975 35.1151 10.1976 34.1447 10.7962 33.5459Z" fill="#FFC759"/>
<path d="M10.7962 33.5459L14.3009 30.0412C14.8997 29.4424 15.87 29.4424 16.4689 30.0412C17.0677 30.64 17.0677 31.6103 16.4689 32.2091L12.9642 35.7138C12.3653 36.3124 11.395 36.3126 10.7962 35.7138C10.1975 35.1151 10.1976 34.1447 10.7962 33.5459Z" fill="url(#paint8_linear_753_215785)" style="mix-blend-mode:color-burn"/>
<defs>
<linearGradient id="paint0_linear_753_215785" x1="23.5092" y1="2.30029" x2="23.5092" y2="43.6995" gradientUnits="userSpaceOnUse">
<stop stop-opacity="0.04"/>
<stop offset="1" stop-opacity="0.25"/>
</linearGradient>
<linearGradient id="paint1_linear_753_215785" x1="23.5092" y1="2.30029" x2="23.5092" y2="43.6995" gradientUnits="userSpaceOnUse">
<stop stop-opacity="0.04"/>
<stop offset="1" stop-opacity="0.25"/>
</linearGradient>
<linearGradient id="paint2_linear_753_215785" x1="23.5092" y1="2.30029" x2="23.5092" y2="43.6995" gradientUnits="userSpaceOnUse">
<stop stop-opacity="0.04"/>
<stop offset="1" stop-opacity="0.25"/>
</linearGradient>
<linearGradient id="paint3_linear_753_215785" x1="23.5092" y1="2.30029" x2="23.5092" y2="43.6995" gradientUnits="userSpaceOnUse">
<stop stop-opacity="0.04"/>
<stop offset="1" stop-opacity="0.25"/>
</linearGradient>
<linearGradient id="paint4_linear_753_215785" x1="23.5092" y1="2.30029" x2="23.5092" y2="43.6995" gradientUnits="userSpaceOnUse">
<stop stop-opacity="0.04"/>
<stop offset="1" stop-opacity="0.25"/>
</linearGradient>
<linearGradient id="paint5_linear_753_215785" x1="23.5092" y1="2.30029" x2="23.5092" y2="43.6995" gradientUnits="userSpaceOnUse">
<stop stop-opacity="0.04"/>
<stop offset="1" stop-opacity="0.25"/>
</linearGradient>
<linearGradient id="paint6_linear_753_215785" x1="23.5092" y1="2.30029" x2="23.5092" y2="43.6995" gradientUnits="userSpaceOnUse">
<stop stop-opacity="0.04"/>
<stop offset="1" stop-opacity="0.25"/>
</linearGradient>
<linearGradient id="paint7_linear_753_215785" x1="23.5092" y1="2.30029" x2="23.5092" y2="43.6995" gradientUnits="userSpaceOnUse">
<stop stop-opacity="0.04"/>
<stop offset="1" stop-opacity="0.25"/>
</linearGradient>
<linearGradient id="paint8_linear_753_215785" x1="23.5092" y1="2.30029" x2="23.5092" y2="43.6995" gradientUnits="userSpaceOnUse">
<stop stop-opacity="0.04"/>
<stop offset="1" stop-opacity="0.25"/>
</linearGradient>
</defs>
</svg>
