<svg width="24" height="24" viewBox="0 0 24 24" fill="none" xmlns="http://www.w3.org/2000/svg">
<path fill-rule="evenodd" clip-rule="evenodd" d="M7.48548 3.2002C6.99924 3.2002 6.53369 3.39691 6.19478 3.74556L2.54545 7.49979C1.91014 8.15335 1.86363 9.17865 2.43716 9.88705L10.6015 19.9713C11.3219 20.8612 12.679 20.8612 13.3994 19.9713L21.5637 9.88705C22.1372 9.17865 22.0907 8.15335 21.4554 7.49979L17.8061 3.74556C17.4672 3.39691 17.0016 3.2002 16.5154 3.2002H7.48548ZM7.37171 4.8357C7.36112 4.84303 7.35118 4.85142 7.34207 4.86079L4.59452 7.6873H10.2233L7.37171 4.8357ZM13.7776 7.6873H19.4064L16.6588 4.86079C16.6497 4.85142 16.6398 4.84303 16.6292 4.8357L13.7776 7.6873ZM19.9906 9.2873H16.3188L14.0909 16.5744L19.9906 9.2873ZM14.6457 9.2873H9.35516L12.0004 17.9396L14.6457 9.2873ZM7.68205 9.2873H4.01024L9.90995 16.5744L7.68205 9.2873ZM12.0004 7.20169L9.59895 4.8002H14.4019L12.0004 7.20169Z" fill="#1A1A1F"/>
</svg>
