<svg width="28" height="28" viewBox="0 0 28 28" fill="none" xmlns="http://www.w3.org/2000/svg">
<path fill-rule="evenodd" clip-rule="evenodd" d="M14.0002 25.6666C20.4435 25.6666 25.6668 20.4432 25.6668 13.9999C25.6668 7.5566 20.4435 2.33325 14.0002 2.33325C7.55684 2.33325 2.3335 7.5566 2.3335 13.9999C2.3335 20.4432 7.55684 25.6666 14.0002 25.6666Z" fill="#C0C0CC" fill-opacity="0.24"/>
<path fill-rule="evenodd" clip-rule="evenodd" d="M11.1602 9.84002C10.7957 9.47553 10.2048 9.47553 9.84026 9.84002C9.47577 10.2045 9.47577 10.7955 9.84026 11.16L12.6803 14L9.84026 16.84C9.47577 17.2045 9.47577 17.7955 9.84026 18.16C10.2048 18.5244 10.7957 18.5244 11.1602 18.16L14.0002 15.3199L16.8403 18.16C17.2048 18.5244 17.7957 18.5244 18.1602 18.16C18.5247 17.7955 18.5247 17.2045 18.1602 16.84L15.3202 14L18.1602 11.16C18.5247 10.7955 18.5247 10.2045 18.1602 9.84002C17.7957 9.47553 17.2048 9.47553 16.8403 9.84002L14.0002 12.6801L11.1602 9.84002Z" fill="#6F6F7C"/>
</svg>
