<svg width="24" height="25" viewBox="0 0 24 25" fill="none" xmlns="http://www.w3.org/2000/svg">
<path d="M8.2251 17.5333C8.2251 17.0914 8.58327 16.7333 9.0251 16.7333H15.0715C15.5133 16.7333 15.8715 17.0914 15.8715 17.5333C15.8715 17.9751 15.5133 18.3333 15.0715 18.3333H9.0251C8.58327 18.3333 8.2251 17.9751 8.2251 17.5333Z" fill="#1A1A1F"/>
<path d="M9.0251 13.7101C8.58327 13.7101 8.2251 14.0683 8.2251 14.5101C8.2251 14.9519 8.58327 15.3101 9.0251 15.3101H15.0715C15.5133 15.3101 15.8715 14.9519 15.8715 14.5101C15.8715 14.0683 15.5133 13.7101 15.0715 13.7101H9.0251Z" fill="#1A1A1F"/>
<path fill-rule="evenodd" clip-rule="evenodd" d="M12.5811 2.7207L6.01191 2.72071C5.0178 2.72072 4.21191 3.52661 4.21191 4.52072V20.5115C4.21191 21.5056 5.0178 22.3115 6.01191 22.3115H17.9986C18.9928 22.3115 19.7986 21.5056 19.7986 20.5115V9.99991C19.7986 9.52606 19.6118 9.07131 19.2786 8.73435L13.8611 3.25514C13.523 2.91315 13.0621 2.7207 12.5811 2.7207ZM11.2095 4.32071L6.01191 4.32071C5.90146 4.32071 5.81191 4.41026 5.81191 4.52072V20.5115C5.81191 20.6219 5.90146 20.7115 6.01191 20.7115H17.9986C18.1091 20.7115 18.1986 20.6219 18.1986 20.5115V11.3162H13.0095C12.0154 11.3162 11.2095 10.5104 11.2095 9.51624V4.32071ZM17.9994 9.71624L12.8095 4.46718V9.51624C12.8095 9.6267 12.899 9.71624 13.0095 9.71624H17.9994Z" fill="#1A1A1F"/>
</svg>



