<svg width="24" height="25" viewBox="0 0 24 25" fill="none" xmlns="http://www.w3.org/2000/svg">
<path fill-rule="evenodd" clip-rule="evenodd" d="M17.8323 4.7168H6.16807C5.63538 4.71679 5.18775 4.71678 4.82146 4.7467C4.43848 4.77799 4.07451 4.84595 3.72902 5.02198C3.20217 5.29043 2.77382 5.71877 2.50538 6.24562C2.32934 6.59111 2.26139 6.95508 2.2301 7.33806C2.20017 7.70435 2.20018 8.15196 2.2002 8.68465V16.3489C2.20018 16.8816 2.20017 17.3292 2.2301 17.6955C2.26139 18.0785 2.32934 18.4425 2.50538 18.788C2.77382 19.3148 3.20217 19.7432 3.72902 20.0116C4.07451 20.1877 4.43848 20.2556 4.82146 20.2869C5.18776 20.3168 5.63538 20.3168 6.16809 20.3168H17.8323C18.365 20.3168 18.8126 20.3168 19.1789 20.2869C19.5619 20.2556 19.9259 20.1877 20.2714 20.0116C20.7982 19.7432 21.2266 19.3148 21.495 18.788C21.671 18.4425 21.739 18.0785 21.7703 17.6955C21.8002 17.3293 21.8002 16.8817 21.8002 16.3491V8.6846C21.8002 8.15198 21.8002 7.70432 21.7703 7.33806C21.739 6.95508 21.671 6.59111 21.495 6.24562C21.2266 5.71877 20.7982 5.29043 20.2714 5.02198C19.9259 4.84595 19.5619 4.77799 19.1789 4.7467C18.8126 4.71678 18.365 4.71679 17.8323 4.7168ZM4.55215 6.40828C4.6363 6.38128 4.75829 6.3572 4.95175 6.34139C5.24512 6.31742 5.62694 6.3168 6.2002 6.3168H17.8002C18.3734 6.3168 18.7553 6.31742 19.0486 6.34139C19.2421 6.3572 19.3641 6.38128 19.4482 6.40828L12.5485 12.9022C12.2404 13.1921 11.7599 13.1921 11.4519 12.9022L4.55215 6.40828ZM3.80505 7.90232C3.8004 8.12411 3.8002 8.38919 3.8002 8.7168V16.3168C3.8002 16.8874 3.80081 17.2683 3.82445 17.5611L8.7908 12.5948L3.80505 7.90232ZM4.9558 18.6925C5.24864 18.7162 5.62958 18.7168 6.2002 18.7168H17.8002C18.3708 18.7168 18.7517 18.7162 19.0446 18.6925L14.0439 13.6919L13.6451 14.0673C12.721 14.937 11.2794 14.937 10.3553 14.0673L9.95646 13.6919L4.9558 18.6925ZM20.1759 17.5612C20.1996 17.2683 20.2002 16.8874 20.2002 16.3168V8.7168C20.2002 8.38919 20.2 8.12411 20.1953 7.90232L15.2096 12.5948L20.1759 17.5612Z" fill="#1A1A1F"/>
</svg>



