<svg width="24" height="24" viewBox="0 0 24 24" fill="none" xmlns="http://www.w3.org/2000/svg">
<path d="M1 10.8C1 8.18126 1 6.87188 1.58944 5.91001C1.91926 5.37178 2.37178 4.91926 2.91001 4.58944C3.87188 4 5.18126 4 7.8 4H16.2C18.8187 4 20.1281 4 21.09 4.58944C21.6282 4.91926 22.0807 5.37178 22.4106 5.91001C23 6.87188 23 8.18126 23 10.8V13.2C23 15.8187 23 17.1281 22.4106 18.09C22.0807 18.6282 21.6282 19.0807 21.09 19.4106C20.1281 20 18.8187 20 16.2 20H7.8C5.18126 20 3.87188 20 2.91001 19.4106C2.37178 19.0807 1.91926 18.6282 1.58944 18.09C1 17.1281 1 15.8187 1 13.2V10.8Z" fill="#F9A605"/>
<path d="M1 10.8C1 8.18126 1 6.87188 1.58944 5.91001C1.91926 5.37178 2.37178 4.91926 2.91001 4.58944C3.87188 4 5.18126 4 7.8 4H16.2C18.8187 4 20.1281 4 21.09 4.58944C21.6282 4.91926 22.0807 5.37178 22.4106 5.91001C23 6.87188 23 8.18126 23 10.8V13.2C23 15.8187 23 17.1281 22.4106 18.09C22.0807 18.6282 21.6282 19.0807 21.09 19.4106C20.1281 20 18.8187 20 16.2 20H7.8C5.18126 20 3.87188 20 2.91001 19.4106C2.37178 19.0807 1.91926 18.6282 1.58944 18.09C1 17.1281 1 15.8187 1 13.2V10.8Z" fill="url(#paint0_linear_884_69254)"/>
<path fill-rule="evenodd" clip-rule="evenodd" d="M16.338 10.3451C16.7228 9.71336 17.3962 9.23193 18.4265 9.23193C19.1282 9.23193 19.6543 9.43249 20.0249 9.75268C20.3874 10.0659 20.5492 10.4488 20.6116 10.731C20.6832 11.0545 20.4789 11.3748 20.1554 11.4464C19.8318 11.5179 19.5115 11.3137 19.44 10.9901C19.4201 10.9001 19.3653 10.7687 19.2403 10.6607C19.1233 10.5596 18.8909 10.4319 18.4265 10.4319C17.8357 10.4319 17.5409 10.677 17.3628 10.9694C17.1602 11.3021 17.0901 11.7399 17.0901 12.0753C17.0901 12.3906 17.2035 12.8317 17.4448 13.1796C17.6739 13.5099 17.9893 13.7232 18.4265 13.7232C19.1186 13.7232 19.3566 13.2804 19.4401 13.0647C19.5598 12.7557 19.9073 12.6022 20.2163 12.7219C20.5253 12.8416 20.6788 13.1891 20.5591 13.4981C20.3963 13.9186 19.842 14.9232 18.4265 14.9232C17.5129 14.9232 16.8602 14.4423 16.4588 13.8635C16.0695 13.3023 15.8901 12.6194 15.8901 12.0753C15.8901 11.6204 15.9778 10.9365 16.338 10.3451Z" fill="black"/>
<path fill-rule="evenodd" clip-rule="evenodd" d="M4.61074 9.4126C4.94211 9.4126 5.21074 9.68123 5.21074 10.0126V12.711L7.33992 9.7628C7.57052 9.45626 7.95111 9.37381 8.2647 9.49728C8.56925 9.61718 8.77944 9.91457 8.77944 10.2653V14.1501C8.77944 14.4815 8.51081 14.7501 8.17944 14.7501C7.84807 14.7501 7.57944 14.4815 7.57944 14.1501V11.4406L5.45026 14.3888C5.21966 14.6953 4.83907 14.7778 4.52548 14.6543C4.22093 14.5344 4.01074 14.237 4.01074 13.8863V10.0126C4.01074 9.68123 4.27937 9.4126 4.61074 9.4126Z" fill="black"/>
<path fill-rule="evenodd" clip-rule="evenodd" d="M10.6337 9.4126C10.9651 9.4126 11.2337 9.68123 11.2337 10.0126V12.711L13.3688 9.7628C13.5994 9.45626 13.98 9.37381 14.2935 9.49728C14.5981 9.61718 14.8083 9.91457 14.8083 10.2653V14.1501C14.8083 14.4815 14.5396 14.7501 14.2083 14.7501C13.8769 14.7501 13.6083 14.4815 13.6083 14.1501V11.4406L11.4732 14.3888C11.2426 14.6953 10.862 14.7778 10.5484 14.6543C10.2439 14.5344 10.0337 14.237 10.0337 13.8863V10.0126C10.0337 9.68123 10.3023 9.4126 10.6337 9.4126Z" fill="black"/>
<defs>
<linearGradient id="paint0_linear_884_69254" x1="12" y1="4" x2="12" y2="20" gradientUnits="userSpaceOnUse">
<stop stop-color="white" stop-opacity="0.56"/>
<stop offset="0.503653" stop-color="white" stop-opacity="0.32"/>
<stop offset="1" stop-color="white" stop-opacity="0"/>
</linearGradient>
</defs>
</svg>
