<svg width="49" height="48" viewBox="0 0 49 48" fill="none" xmlns="http://www.w3.org/2000/svg">
<path fill-rule="evenodd" clip-rule="evenodd" d="M24.5 40.8C33.7784 40.8 41.3 33.2784 41.3 24C41.3 14.7216 33.7784 7.2 24.5 7.2C15.2216 7.2 7.7 14.7216 7.7 24C7.7 33.2784 15.2216 40.8 24.5 40.8ZM24.5 44C35.5457 44 44.5 35.0457 44.5 24C44.5 12.9543 35.5457 4 24.5 4C13.4543 4 4.5 12.9543 4.5 24C4.5 35.0457 13.4543 44 24.5 44Z" fill="#A4A4B2"/>
<path fill-rule="evenodd" clip-rule="evenodd" d="M24.5 40.8C33.7784 40.8 41.3 33.2784 41.3 24C41.3 14.7216 33.7784 7.2 24.5 7.2C15.2216 7.2 7.7 14.7216 7.7 24C7.7 33.2784 15.2216 40.8 24.5 40.8ZM24.5 44C35.5457 44 44.5 35.0457 44.5 24C44.5 12.9543 35.5457 4 24.5 4C13.4543 4 4.5 12.9543 4.5 24C4.5 35.0457 13.4543 44 24.5 44Z" fill="url(#paint0_linear_810_26481)" style="mix-blend-mode:darken"/>
<path d="M26.8994 14.6416C26.8994 16.0566 25.792 17.2051 24.3359 17.2051C22.9209 17.2051 21.7725 16.0566 21.7725 14.6416C21.7725 13.1855 22.9209 12.0576 24.3359 12.0576C25.792 12.0576 26.8994 13.1855 26.8994 14.6416Z" fill="#A4A4B2"/>
<path d="M26.8994 14.6416C26.8994 16.0566 25.792 17.2051 24.3359 17.2051C22.9209 17.2051 21.7725 16.0566 21.7725 14.6416C21.7725 13.1855 22.9209 12.0576 24.3359 12.0576C25.792 12.0576 26.8994 13.1855 26.8994 14.6416Z" fill="url(#paint1_linear_810_26481)" style="mix-blend-mode:darken"/>
<path d="M28.9707 34.6367H21.0752C20.2754 34.6367 19.6191 34.042 19.6191 33.2012C19.6191 32.4219 20.2754 31.8066 21.0752 31.8066H23.4541V23.1934H21.4238C20.6035 23.1934 19.9678 22.5986 19.9678 21.7578C19.9678 20.9785 20.6035 20.3633 21.4238 20.3633H25.0947C26.0996 20.3633 26.6533 21.0811 26.6533 22.168V31.8066H28.9707C29.791 31.8066 30.4473 32.4219 30.4473 33.2012C30.4473 34.042 29.791 34.6367 28.9707 34.6367Z" fill="#A4A4B2"/>
<path d="M28.9707 34.6367H21.0752C20.2754 34.6367 19.6191 34.042 19.6191 33.2012C19.6191 32.4219 20.2754 31.8066 21.0752 31.8066H23.4541V23.1934H21.4238C20.6035 23.1934 19.9678 22.5986 19.9678 21.7578C19.9678 20.9785 20.6035 20.3633 21.4238 20.3633H25.0947C26.0996 20.3633 26.6533 21.0811 26.6533 22.168V31.8066H28.9707C29.791 31.8066 30.4473 32.4219 30.4473 33.2012C30.4473 34.042 29.791 34.6367 28.9707 34.6367Z" fill="url(#paint2_linear_810_26481)" style="mix-blend-mode:darken"/>
<defs>
<linearGradient id="paint0_linear_810_26481" x1="24.5" y1="4" x2="24.5" y2="44" gradientUnits="userSpaceOnUse">
<stop stop-opacity="0"/>
<stop offset="1" stop-opacity="0.22"/>
</linearGradient>
<linearGradient id="paint1_linear_810_26481" x1="24.5" y1="4" x2="24.5" y2="44" gradientUnits="userSpaceOnUse">
<stop stop-opacity="0"/>
<stop offset="1" stop-opacity="0.22"/>
</linearGradient>
<linearGradient id="paint2_linear_810_26481" x1="24.5" y1="4" x2="24.5" y2="44" gradientUnits="userSpaceOnUse">
<stop stop-opacity="0"/>
<stop offset="1" stop-opacity="0.22"/>
</linearGradient>
</defs>
</svg>
