<svg width="18" height="18" viewBox="0 0 18 18" fill="none" xmlns="http://www.w3.org/2000/svg">
<path d="M9 1.5C13.1421 1.5 16.5 4.85786 16.5 9C16.5 13.1421 13.1421 16.5 9 16.5C4.85786 16.5 1.5 13.1421 1.5 9C1.5 4.85786 4.85786 1.5 9 1.5ZM7.84668 7.63672C7.53906 7.63672 7.30078 7.86694 7.30078 8.15918C7.30078 8.47449 7.53906 8.69727 7.84668 8.69727H8.60742V11.9277H7.71582C7.41598 11.9277 7.17006 12.1581 7.16992 12.4502C7.16992 12.7655 7.41589 12.9893 7.71582 12.9893H10.6768C10.9843 12.9891 11.2305 12.7654 11.2305 12.4502C11.2303 12.1582 10.9842 11.9279 10.6768 11.9277H9.80762V8.31348C9.80762 7.90588 9.59949 7.63672 9.22266 7.63672H7.84668ZM8.93848 4.52148C8.40796 4.52148 7.97773 4.94439 7.97754 5.49023C7.97754 6.02087 8.40784 6.45215 8.93848 6.45215C9.4845 6.45215 9.89941 6.02087 9.89941 5.49023C9.89923 4.94439 9.48437 4.52148 8.93848 4.52148Z" fill="#C0C0CC" fill-opacity="0.56"/>
</svg>
