<svg width="24" height="25" viewBox="0 0 24 25" fill="none" xmlns="http://www.w3.org/2000/svg">
<path d="M19.2002 17.3148V18.5148C19.2002 19.1776 18.6629 19.7148 18.0002 19.7148H6.00019C5.33745 19.7148 4.80019 19.1776 4.80019 18.5148L4.80019 6.51484C4.80019 5.8521 5.33745 5.31484 6.00019 5.31484L18.0002 5.31484C18.6629 5.31484 19.2002 5.8521 19.2002 6.51484V7.81484C19.2002 8.25667 19.5584 8.61484 20.0002 8.61484C20.442 8.61484 20.8002 8.25667 20.8002 7.81484V6.51484C20.8002 4.96845 19.5466 3.71484 18.0002 3.71484H6.00019C4.4538 3.71484 3.2002 4.96845 3.2002 6.51484V18.5148C3.2002 20.0612 4.4538 21.3148 6.00019 21.3148H18.0002C19.5466 21.3148 20.8002 20.0612 20.8002 18.5148V17.3148C20.8002 16.873 20.442 16.5148 20.0002 16.5148C19.5584 16.5148 19.2002 16.873 19.2002 17.3148Z" fill="#1A1A1F"/>
<path d="M14.9345 9.08053C14.6221 8.76811 14.6221 8.26158 14.9345 7.94916C15.2469 7.63674 15.7535 7.63674 16.0659 7.94916L20.0659 11.9492C20.3783 12.2616 20.3783 12.7681 20.0659 13.0805L16.0659 17.0805C15.7535 17.393 15.2469 17.393 14.9345 17.0805C14.6221 16.7681 14.6221 16.2616 14.9345 15.9492L17.5688 13.3148H8.50019C8.05837 13.3148 7.70019 12.9567 7.70019 12.5148C7.70019 12.073 8.05837 11.7148 8.50019 11.7148H17.5688L14.9345 9.08053Z" fill="#1A1A1F"/>
</svg>



