<svg width="24" height="25" viewBox="0 0 24 25" fill="none" xmlns="http://www.w3.org/2000/svg">
<path fill-rule="evenodd" clip-rule="evenodd" d="M12.0003 3.7168C9.34936 3.7168 7.20033 5.86583 7.20033 8.5168C7.20033 11.1678 9.34936 13.3168 12.0003 13.3168C14.6513 13.3168 16.8003 11.1678 16.8003 8.5168C16.8003 5.86583 14.6513 3.7168 12.0003 3.7168ZM8.80033 8.5168C8.80033 6.74949 10.233 5.3168 12.0003 5.3168C13.7676 5.3168 15.2003 6.74949 15.2003 8.5168C15.2003 10.2841 13.7676 11.7168 12.0003 11.7168C10.233 11.7168 8.80033 10.2841 8.80033 8.5168Z" fill="#1A1A1F"/>
<path fill-rule="evenodd" clip-rule="evenodd" d="M12.0003 14.7168C7.81178 14.7168 4.06924 17.0118 3.32822 20.3512C3.06999 21.5149 4.07628 22.3168 5.004 22.3168H18.9998C19.9317 22.3168 20.9299 21.5113 20.6724 20.3512C19.9314 17.0118 16.1889 14.7168 12.0003 14.7168ZM5.004 20.7168C4.95033 20.7168 4.91224 20.6966 4.89399 20.681C5.42384 18.3445 8.26265 16.3168 12.0003 16.3168C15.7387 16.3168 18.5779 18.3453 19.107 20.6824C19.0896 20.6971 19.0528 20.7168 18.9998 20.7168H5.004Z" fill="#1A1A1F"/>
</svg>



