<svg width="24" height="25" viewBox="0 0 24 25" fill="none" xmlns="http://www.w3.org/2000/svg">
<path d="M9.0002 3.3168C7.78517 3.3168 6.8002 4.30177 6.8002 5.5168V19.5168C6.8002 20.7318 7.78517 21.7168 9.0002 21.7168H14.9904C16.2054 21.7168 17.1903 20.7318 17.1903 19.5168V12.7938H18.7904V19.5168C18.7904 21.6155 17.089 23.3168 14.9904 23.3168H9.0002C6.90152 23.3168 5.2002 21.6155 5.2002 19.5168V5.5168C5.2002 3.41811 6.90151 1.7168 9.0002 1.7168H13.4177V3.3168H9.0002Z" fill="#1A1A1F"/>
<path d="M10.1221 18.5168C10.1221 18.075 10.4802 17.7168 10.9221 17.7168H13.0467C13.4885 17.7168 13.8467 18.075 13.8467 18.5168C13.8467 18.9586 13.4885 19.3168 13.0467 19.3168H10.9221C10.4802 19.3168 10.1221 18.9586 10.1221 18.5168Z" fill="#1A1A1F"/>
<path d="M18.0857 2.21046C18.029 2.02078 17.7606 2.01997 17.7028 2.20931L17.2393 3.72604C16.9523 4.66552 16.2234 5.40494 15.2882 5.70551L13.6676 6.22634C13.4799 6.28666 13.4835 6.55345 13.6727 6.60873L15.2112 7.05809C16.1898 7.34392 16.9563 8.10716 17.2462 9.08454L17.7023 10.6219C17.7591 10.8133 18.0305 10.8125 18.0861 10.6207L18.527 9.10156C18.8135 8.11467 19.5851 7.34306 20.572 7.05665L22.1152 6.60882C22.3049 6.55377 22.3084 6.2863 22.1203 6.22622L20.4953 5.70733C19.5515 5.40595 18.8173 4.65802 18.5336 3.70876L18.0857 2.21046Z" fill="#1A1A1F"/>
</svg>



