<svg width="25" height="24" viewBox="0 0 25 24" fill="none" xmlns="http://www.w3.org/2000/svg">
<path d="M12.5001 3.7002C12.7519 3.70019 12.989 3.81874 13.1401 4.02018L17.2311 9.47473L21.6277 7.16136C21.9137 7.01088 22.2622 7.04725 22.5109 7.25354C22.7597 7.45984 22.8599 7.79555 22.7649 8.10445L20.5524 15.3003H4.44807L2.23556 8.10445C2.14058 7.79555 2.24079 7.45984 2.48954 7.25354C2.7383 7.04725 3.08675 7.01088 3.37275 7.16136L7.76933 9.47472L11.8601 4.02021C12.0111 3.81876 12.2482 3.7002 12.5001 3.7002Z" fill="#6F6F7C"/>
<path d="M4.70023 16.9003V18.5002C4.70023 19.4943 5.50612 20.3002 6.50023 20.3002H18.5002C19.4943 20.3002 20.3002 19.4943 20.3002 18.5002V16.9003H4.70023Z" fill="#6F6F7C"/>
</svg>
