<svg width="24" height="25" viewBox="0 0 24 25" fill="none" xmlns="http://www.w3.org/2000/svg">
<path d="M11.7847 14.5015C12.2871 14.5015 12.605 14.1938 12.6152 13.8042V13.6812C12.6255 13.1582 12.9536 12.8198 13.6099 12.3789C14.5532 11.7637 15.2095 11.1997 15.2095 10.0513C15.2095 8.44141 13.7637 7.54932 12.0923 7.54932C10.4312 7.54932 9.32373 8.32861 9.03662 9.2207C8.98535 9.38477 8.95459 9.54883 8.95459 9.71289C8.95459 10.1641 9.30322 10.4204 9.67236 10.4204C10.119 10.4204 10.2721 10.2269 10.4761 9.9691C10.5249 9.90731 10.5768 9.84182 10.6362 9.77441C10.9541 9.25146 11.395 8.94385 12.0205 8.94385C12.8716 8.94385 13.415 9.42578 13.415 10.1333C13.415 10.769 13.0049 11.0869 12.1641 11.6714C11.4771 12.1533 10.9644 12.666 10.9644 13.5889V13.7017C10.9644 14.2349 11.2617 14.5015 11.7847 14.5015Z" fill="#1A1A1F"/>
<path d="M11.7642 17.4238C12.3486 17.4238 12.8408 16.9727 12.8408 16.3882C12.8408 15.8037 12.3589 15.3628 11.7642 15.3628C11.1797 15.3628 10.6875 15.814 10.6875 16.3882C10.6875 16.9624 11.1899 17.4238 11.7642 17.4238Z" fill="#1A1A1F"/>
<path fill-rule="evenodd" clip-rule="evenodd" d="M22 12.5156C22 18.0385 17.5228 22.5156 12 22.5156C6.47715 22.5156 2 18.0385 2 12.5156C2 6.99278 6.47715 2.51562 12 2.51562C17.5228 2.51562 22 6.99278 22 12.5156ZM20.4 12.5156C20.4 17.1548 16.6392 20.9156 12 20.9156C7.36081 20.9156 3.6 17.1548 3.6 12.5156C3.6 7.87643 7.36081 4.11563 12 4.11563C16.6392 4.11563 20.4 7.87643 20.4 12.5156Z" fill="#1A1A1F"/>
</svg>



