<svg width="24" height="28" viewBox="0 0 24 28" fill="none" xmlns="http://www.w3.org/2000/svg">
<path fill-rule="evenodd" clip-rule="evenodd" d="M11.8319 18.6903L10.298 25.6435C10.101 26.3306 9.38426 26.729 8.69716 26.5325C8.31942 26.4238 8.02854 26.1583 7.87626 25.827L6.95064 24.1625L5.24192 25.1131C4.61734 25.459 3.82991 25.2337 3.48365 24.6087C3.31089 24.2975 3.28011 23.9445 3.37178 23.6264L6.83588 9.90104C7.03241 9.21352 7.74886 8.81537 8.43631 9.01225L12.8848 10.2808L12.915 10.2901L12.9165 10.2903L12.945 10.2998L12.9483 10.301L12.9745 10.3102L12.9795 10.312L13.0041 10.3215L13.0101 10.3239L13.0404 10.3364L13.0608 10.3452L13.0703 10.3495L13.0888 10.3584L13.0996 10.3634L13.1164 10.372L13.1283 10.3782L13.1567 10.3933L13.1703 10.4009L13.1847 10.4094L13.1966 10.4162L13.2121 10.4258L13.2223 10.4323L13.2387 10.4431L13.2476 10.4486L13.2654 10.4609L13.2726 10.4658L13.2913 10.4794L13.2968 10.4834L13.3167 10.4982L13.3212 10.5014L13.3414 10.5178L13.3444 10.5201L13.3654 10.5379L13.3673 10.5392L13.3892 10.5581L13.3898 10.5589L13.4115 10.5789L13.4127 10.5795L13.4333 10.5993L13.4353 10.6013L13.4542 10.6204L13.4573 10.6236L13.4747 10.6419L13.479 10.6463L13.4946 10.6637L13.4996 10.6694L13.5142 10.6862L13.5202 10.6932L13.5331 10.7091L13.5395 10.7172L13.5514 10.7321L13.5692 10.7555L13.5775 10.7665L13.5864 10.7794L13.6032 10.8041L13.6127 10.8181L13.6193 10.8284C13.6354 10.8533 13.6503 10.8787 13.6644 10.9045L13.6756 10.9253L13.6783 10.9303L13.6898 10.9532L13.6913 10.9569L13.7032 10.9809L13.7044 10.9834L13.7074 10.9906L13.728 11.0375L13.7282 11.038L13.7386 11.065L13.7396 11.0671L13.7488 11.0925L13.7503 11.0962L13.7587 11.1206L13.7604 11.1259L13.7674 11.149L13.7697 11.1555L13.7761 11.1774L13.7784 11.1855L13.7837 11.2061L13.7864 11.2159L13.7907 11.2346L13.8028 11.293L13.8056 11.308L13.8079 11.3223L13.8105 11.3389L13.8125 11.3515L13.8147 11.3701L13.8159 11.3815C13.8189 11.4091 13.8216 11.4363 13.8229 11.4644L13.8233 11.4712L13.8245 11.4964V11.5013V11.5282V11.532L13.8239 11.5604L13.8237 11.5621L13.8226 11.5923L13.8206 11.623V11.6245L13.818 11.6534L13.8178 11.6566L13.8145 11.684L13.8141 11.689L13.8103 11.7145L13.8094 11.7213L13.8054 11.7453L13.8041 11.7534L13.7998 11.7761L15.8488 11.1913C16.5361 10.9948 17.2527 11.3928 17.4495 12.0801L20.9134 24.2307C21.0045 24.5489 20.9743 24.9014 20.8014 25.213C20.4554 25.8376 19.6679 26.0636 19.0438 25.7174L17.3342 24.767L16.4089 26.4314C16.257 26.7629 15.9662 27.0287 15.5878 27.1368C14.9007 27.3338 14.1843 26.9352 13.9874 26.2479L11.8323 18.6913L11.8319 18.6903Z" fill="#FFC759"/>
<path fill-rule="evenodd" clip-rule="evenodd" d="M11.8319 18.6903L10.298 25.6435C10.101 26.3306 9.38426 26.729 8.69716 26.5325C8.31942 26.4238 8.02854 26.1583 7.87626 25.827L6.95064 24.1625L5.24192 25.1131C4.61734 25.459 3.82991 25.2337 3.48365 24.6087C3.31089 24.2975 3.28011 23.9445 3.37178 23.6264L6.83588 9.90104C7.03241 9.21352 7.74886 8.81537 8.43631 9.01225L12.8848 10.2808L12.915 10.2901L12.9165 10.2903L12.945 10.2998L12.9483 10.301L12.9745 10.3102L12.9795 10.312L13.0041 10.3215L13.0101 10.3239L13.0404 10.3364L13.0608 10.3452L13.0703 10.3495L13.0888 10.3584L13.0996 10.3634L13.1164 10.372L13.1283 10.3782L13.1567 10.3933L13.1703 10.4009L13.1847 10.4094L13.1966 10.4162L13.2121 10.4258L13.2223 10.4323L13.2387 10.4431L13.2476 10.4486L13.2654 10.4609L13.2726 10.4658L13.2913 10.4794L13.2968 10.4834L13.3167 10.4982L13.3212 10.5014L13.3414 10.5178L13.3444 10.5201L13.3654 10.5379L13.3673 10.5392L13.3892 10.5581L13.3898 10.5589L13.4115 10.5789L13.4127 10.5795L13.4333 10.5993L13.4353 10.6013L13.4542 10.6204L13.4573 10.6236L13.4747 10.6419L13.479 10.6463L13.4946 10.6637L13.4996 10.6694L13.5142 10.6862L13.5202 10.6932L13.5331 10.7091L13.5395 10.7172L13.5514 10.7321L13.5692 10.7555L13.5775 10.7665L13.5864 10.7794L13.6032 10.8041L13.6127 10.8181L13.6193 10.8284C13.6354 10.8533 13.6503 10.8787 13.6644 10.9045L13.6756 10.9253L13.6783 10.9303L13.6898 10.9532L13.6913 10.9569L13.7032 10.9809L13.7044 10.9834L13.7074 10.9906L13.728 11.0375L13.7282 11.038L13.7386 11.065L13.7396 11.0671L13.7488 11.0925L13.7503 11.0962L13.7587 11.1206L13.7604 11.1259L13.7674 11.149L13.7697 11.1555L13.7761 11.1774L13.7784 11.1855L13.7837 11.2061L13.7864 11.2159L13.7907 11.2346L13.8028 11.293L13.8056 11.308L13.8079 11.3223L13.8105 11.3389L13.8125 11.3515L13.8147 11.3701L13.8159 11.3815C13.8189 11.4091 13.8216 11.4363 13.8229 11.4644L13.8233 11.4712L13.8245 11.4964V11.5013V11.5282V11.532L13.8239 11.5604L13.8237 11.5621L13.8226 11.5923L13.8206 11.623V11.6245L13.818 11.6534L13.8178 11.6566L13.8145 11.684L13.8141 11.689L13.8103 11.7145L13.8094 11.7213L13.8054 11.7453L13.8041 11.7534L13.7998 11.7761L15.8488 11.1913C16.5361 10.9948 17.2527 11.3928 17.4495 12.0801L20.9134 24.2307C21.0045 24.5489 20.9743 24.9014 20.8014 25.213C20.4554 25.8376 19.6679 26.0636 19.0438 25.7174L17.3342 24.767L16.4089 26.4314C16.257 26.7629 15.9662 27.0287 15.5878 27.1368C14.9007 27.3338 14.1843 26.9352 13.9874 26.2479L11.8323 18.6913L11.8319 18.6903Z" fill="url(#paint0_linear_811_31203)" style="mix-blend-mode:color-burn"/>
<path d="M3.51953 5.22852C7.21894 0.575697 13.9894 -0.197272 18.6426 3.50195C23.2959 7.20126 24.0693 13.9715 20.3701 18.625C16.6708 23.2782 9.89943 24.0519 5.24609 20.3525C0.593166 16.6531 -0.179692 9.88172 3.51953 5.22852Z" fill="#FFC759"/>
<path d="M3.51953 5.22852C7.21894 0.575697 13.9894 -0.197272 18.6426 3.50195C23.2959 7.20126 24.0693 13.9715 20.3701 18.625C16.6708 23.2782 9.89943 24.0519 5.24609 20.3525C0.593166 16.6531 -0.179692 9.88172 3.51953 5.22852Z" fill="url(#paint1_radial_811_31203)"/>
<path d="M3.51953 5.22852C7.21894 0.575697 13.9894 -0.197272 18.6426 3.50195C23.2959 7.20126 24.0693 13.9715 20.3701 18.625C16.6708 23.2782 9.89943 24.0519 5.24609 20.3525C0.593166 16.6531 -0.179692 9.88172 3.51953 5.22852Z" stroke="url(#paint2_linear_811_31203)"/>
<path d="M10.5905 10.0231C10.4261 10.1439 10.2751 10.125 10.141 9.96644L9.95978 9.76421C9.81616 9.59997 9.83128 9.4545 10.0049 9.326L11.7277 8.09067C11.8411 8.00374 11.9733 7.96045 12.1243 7.96045H12.4737C12.6835 7.96045 12.7893 8.06607 12.7893 8.27772V15.5764C12.7893 15.7878 12.6835 15.8936 12.4719 15.8936H12.1093C11.8978 15.8936 11.792 15.7878 11.792 15.5764V9.16176L10.5907 10.0231H10.5905Z" fill="#FEFEFE"/>
<path d="M10.8088 10.3718C10.6459 10.4846 10.4773 10.5296 10.3041 10.5081L10.2461 10.4967C10.0881 10.4631 9.94804 10.3746 9.82709 10.232C9.77212 10.1654 9.70842 10.0993 9.65076 10.0345C9.50034 9.86309 9.43492 9.68106 9.45458 9.49023C9.47444 9.29727 9.57682 9.13228 9.76016 8.99643C10.3382 8.5835 10.9176 8.14584 11.5026 7.74618C11.5899 7.6829 11.6836 7.63507 11.7826 7.60236L11.8072 7.59514C11.909 7.56415 12.0149 7.54883 12.124 7.54883H12.4734C12.6909 7.54883 12.8674 7.61631 13.001 7.75045C13.1337 7.88403 13.2008 8.06015 13.2008 8.27785V15.5765C13.2008 16.0623 12.9576 16.3056 12.4715 16.3056H12.1089C11.8899 16.3056 11.7132 16.2387 11.58 16.1055C11.4468 15.9723 11.3799 15.7959 11.3799 15.5766V9.96362L10.809 10.3718H10.8088ZM10.3494 9.58526L10.4063 9.64876L11.5396 8.83638C11.6091 8.7823 11.6966 8.75021 11.7915 8.75021C12.0188 8.75021 12.2033 8.93465 12.2033 9.16197V15.4821H12.3771V8.3724H12.1239C12.0954 8.3724 12.0704 8.37522 12.0494 8.38072L12.0399 8.38395C12.0216 8.39 12.0042 8.39831 11.9885 8.40855L10.3493 9.58533L10.3494 9.58526Z" fill="#FEFEFE"/>
<defs>
<linearGradient id="paint0_linear_811_31203" x1="12.1425" y1="8.96191" x2="12.1425" y2="27.1872" gradientUnits="userSpaceOnUse">
<stop stop-opacity="0.04"/>
<stop offset="1" stop-opacity="0.25"/>
</linearGradient>
<radialGradient id="paint1_radial_811_31203" cx="0" cy="0" r="1" gradientTransform="matrix(11.2224 19.3408 -17.2926 10.0655 5.58643 6.58431)" gradientUnits="userSpaceOnUse">
<stop stop-color="#FFBA30"/>
<stop offset="0.31936" stop-color="#FFC759"/>
<stop offset="1" stop-color="white" stop-opacity="0.72"/>
</radialGradient>
<linearGradient id="paint2_linear_811_31203" x1="12.0333" y1="23.2985" x2="12.0346" y2="5.15166" gradientUnits="userSpaceOnUse">
<stop stop-color="#FFBA30" stop-opacity="0"/>
<stop offset="1" stop-color="white" stop-opacity="0.2"/>
</linearGradient>
</defs>
</svg>
