<svg width="46" height="46" viewBox="0 0 46 46" fill="none" xmlns="http://www.w3.org/2000/svg">
<path fill-rule="evenodd" clip-rule="evenodd" d="M23.3575 1.9165C23.1391 1.91635 22.9172 1.96309 22.7064 2.06198C18.4803 4.04411 14.9537 8.9558 14.0709 14.7067C14.02 14.7428 13.9707 14.7824 13.9234 14.8255L8.74955 19.5461C5.93454 22.1145 4.99423 26.1524 6.385 29.7001L6.98845 31.2395C7.2187 31.8268 7.78516 32.2132 8.41601 32.2132L14.9569 32.2132C15.0308 32.2132 15.1034 32.208 15.1745 32.1979C15.2454 32.2079 15.3178 32.2131 15.3914 32.2131C16.2382 32.2131 16.9247 31.5266 16.9247 30.6798V17.4839C16.9247 11.9599 19.9358 7.16627 23.3575 5.17995C26.7792 7.16627 29.7903 11.9599 29.7903 17.4839V30.6798C29.7903 31.5266 30.4768 32.2131 31.3237 32.2131C31.3973 32.2131 31.4697 32.2079 31.5405 32.1979C31.6116 32.208 31.6843 32.2132 31.7581 32.2132L38.299 32.2132C38.9299 32.2132 39.4964 31.8268 39.7266 31.2395L40.3301 29.7001C41.7208 26.1524 40.7805 22.1145 37.9655 19.5461L32.7916 14.8255C32.7443 14.7824 32.6951 14.7428 32.6442 14.7067C31.7613 8.95579 28.2348 4.04412 24.0087 2.06198C23.7979 1.96309 23.5759 1.91635 23.3575 1.9165ZM32.857 19.0365V29.1466L37.2532 29.1466L37.4749 28.5809C38.4021 26.2157 37.7752 23.5238 35.8986 21.8115L32.857 19.0365ZM13.8581 19.0365V29.1466L9.46187 29.1466L9.24012 28.5809C8.31294 26.2157 8.93981 23.5238 10.8165 21.8115L13.8581 19.0365ZM18.6709 36.5467C19.0787 38.9805 21.0108 41.1755 23.3576 42.1844C25.7044 41.1755 27.6365 38.9805 28.0443 36.5467C28.1842 35.7115 28.9747 35.1479 29.8099 35.2878C30.6451 35.4277 31.2087 36.2182 31.0688 37.0534C30.4214 40.9173 27.3371 44.0611 23.874 45.2724C23.7727 45.3087 23.6675 45.3344 23.56 45.3488C23.4178 45.3679 23.2759 45.3665 23.1379 45.3464C23.0364 45.3316 22.937 45.3067 22.8412 45.2724C19.3781 44.0611 16.2938 40.9173 15.6464 37.0534C15.5065 36.2182 16.0701 35.4277 16.9053 35.2878C17.7405 35.1479 18.531 35.7115 18.6709 36.5467ZM23.4478 12.8317C24.2947 12.8317 24.9812 13.5182 24.9812 14.365V15.9582C24.9812 16.8051 24.2947 17.4916 23.4478 17.4916C22.601 17.4916 21.9145 16.8051 21.9145 15.9582V14.365C21.9145 13.5182 22.601 12.8317 23.4478 12.8317ZM24.9812 21.2218C24.9812 20.375 24.2947 19.6885 23.4478 19.6885C22.601 19.6885 21.9145 20.375 21.9145 21.2218V22.815C21.9145 23.6619 22.601 24.3484 23.4478 24.3484C24.2947 24.3484 24.9812 23.6619 24.9812 22.815V21.2218Z" fill="#93C7FF"/>
<path fill-rule="evenodd" clip-rule="evenodd" d="M23.3575 1.9165C23.1391 1.91635 22.9172 1.96309 22.7064 2.06198C18.4803 4.04411 14.9537 8.9558 14.0709 14.7067C14.02 14.7428 13.9707 14.7824 13.9234 14.8255L8.74955 19.5461C5.93454 22.1145 4.99423 26.1524 6.385 29.7001L6.98845 31.2395C7.2187 31.8268 7.78516 32.2132 8.41601 32.2132L14.9569 32.2132C15.0308 32.2132 15.1034 32.208 15.1745 32.1979C15.2454 32.2079 15.3178 32.2131 15.3914 32.2131C16.2382 32.2131 16.9247 31.5266 16.9247 30.6798V17.4839C16.9247 11.9599 19.9358 7.16627 23.3575 5.17995C26.7792 7.16627 29.7903 11.9599 29.7903 17.4839V30.6798C29.7903 31.5266 30.4768 32.2131 31.3237 32.2131C31.3973 32.2131 31.4697 32.2079 31.5405 32.1979C31.6116 32.208 31.6843 32.2132 31.7581 32.2132L38.299 32.2132C38.9299 32.2132 39.4964 31.8268 39.7266 31.2395L40.3301 29.7001C41.7208 26.1524 40.7805 22.1145 37.9655 19.5461L32.7916 14.8255C32.7443 14.7824 32.6951 14.7428 32.6442 14.7067C31.7613 8.95579 28.2348 4.04412 24.0087 2.06198C23.7979 1.96309 23.5759 1.91635 23.3575 1.9165ZM32.857 19.0365V29.1466L37.2532 29.1466L37.4749 28.5809C38.4021 26.2157 37.7752 23.5238 35.8986 21.8115L32.857 19.0365ZM13.8581 19.0365V29.1466L9.46187 29.1466L9.24012 28.5809C8.31294 26.2157 8.93981 23.5238 10.8165 21.8115L13.8581 19.0365ZM18.6709 36.5467C19.0787 38.9805 21.0108 41.1755 23.3576 42.1844C25.7044 41.1755 27.6365 38.9805 28.0443 36.5467C28.1842 35.7115 28.9747 35.1479 29.8099 35.2878C30.6451 35.4277 31.2087 36.2182 31.0688 37.0534C30.4214 40.9173 27.3371 44.0611 23.874 45.2724C23.7727 45.3087 23.6675 45.3344 23.56 45.3488C23.4178 45.3679 23.2759 45.3665 23.1379 45.3464C23.0364 45.3316 22.937 45.3067 22.8412 45.2724C19.3781 44.0611 16.2938 40.9173 15.6464 37.0534C15.5065 36.2182 16.0701 35.4277 16.9053 35.2878C17.7405 35.1479 18.531 35.7115 18.6709 36.5467ZM23.4478 12.8317C24.2947 12.8317 24.9812 13.5182 24.9812 14.365V15.9582C24.9812 16.8051 24.2947 17.4916 23.4478 17.4916C22.601 17.4916 21.9145 16.8051 21.9145 15.9582V14.365C21.9145 13.5182 22.601 12.8317 23.4478 12.8317ZM24.9812 21.2218C24.9812 20.375 24.2947 19.6885 23.4478 19.6885C22.601 19.6885 21.9145 20.375 21.9145 21.2218V22.815C21.9145 23.6619 22.601 24.3484 23.4478 24.3484C24.2947 24.3484 24.9812 23.6619 24.9812 22.815V21.2218Z" fill="url(#paint0_linear_867_44298)" style="mix-blend-mode:color-burn"/>
<defs>
<linearGradient id="paint0_linear_867_44298" x1="23.3575" y1="1.9165" x2="23.3575" y2="45.3623" gradientUnits="userSpaceOnUse">
<stop stop-opacity="0.04"/>
<stop offset="1" stop-opacity="0.25"/>
</linearGradient>
</defs>
</svg>
