<svg width="24" height="25" viewBox="0 0 24 25" fill="none" xmlns="http://www.w3.org/2000/svg">
<path fill-rule="evenodd" clip-rule="evenodd" d="M11.1797 16.4712C11.1797 16.9429 10.8618 17.271 10.3799 17.271C9.9082 17.271 9.58008 16.9531 9.58008 16.4712V15.7329H8.75977C8.49316 15.7329 8.31885 15.5483 8.31885 15.292C8.31885 15.0254 8.48291 14.8408 8.75977 14.8408H9.58008V13.9077H8.75977C8.47266 13.9077 8.30859 13.7231 8.30859 13.4565C8.30859 13.2002 8.47266 13.0054 8.75977 13.0054H9.58008V9.07812C9.58008 8.55518 9.8877 8.2373 10.3901 8.2373H12.728C14.5122 8.2373 15.6606 9.42676 15.6606 11.0879C15.6606 12.7285 14.4814 13.9077 12.687 13.9077H11.1797V14.8408H13.251C13.5278 14.8408 13.6919 15.0254 13.6919 15.292C13.6919 15.5483 13.5278 15.7329 13.251 15.7329H11.1797V16.4712ZM11.1899 9.62158V12.5747L12.4102 12.585C13.4663 12.585 14.0508 12.0107 14.0508 11.0981C14.0508 10.1958 13.4766 9.62158 12.4102 9.62158H11.1899Z" fill="#1A1A1F"/>
<path fill-rule="evenodd" clip-rule="evenodd" d="M22 12.5166C22 18.0394 17.5228 22.5166 12 22.5166C6.47715 22.5166 2 18.0394 2 12.5166C2 6.99375 6.47715 2.5166 12 2.5166C17.5228 2.5166 22 6.99375 22 12.5166ZM20.4 12.5166C20.4 17.1558 16.6392 20.9166 12 20.9166C7.36081 20.9166 3.6 17.1558 3.6 12.5166C3.6 7.87741 7.36081 4.1166 12 4.1166C16.6392 4.1166 20.4 7.87741 20.4 12.5166Z" fill="#1A1A1F"/>
</svg>



