<svg width="24" height="25" viewBox="0 0 24 25" fill="none" xmlns="http://www.w3.org/2000/svg">
<path d="M12.541 2.00298C12.2288 1.696 11.7278 1.69706 11.4168 2.00535L8.44412 4.95288C8.13038 5.26397 8.12822 5.7705 8.43931 6.08424C8.7504 6.39799 9.25693 6.40014 9.57067 6.08906L11.1929 4.4806L11.1929 14.7704C11.1929 15.2122 11.551 15.5704 11.9929 15.5704C12.4347 15.5704 12.7929 15.2122 12.7929 14.7704L12.7929 4.49447L14.4171 6.09142C14.7322 6.40119 15.2387 6.3969 15.5484 6.08185C15.8582 5.76679 15.8539 5.26028 15.5389 4.95051L12.541 2.00298Z" fill="#1A1A1F"/>
<path d="M6.00312 9.30972C5.34038 9.30972 4.80312 9.84698 4.80312 10.5097V20.5342C4.80312 21.197 5.34038 21.7342 6.00313 21.7342H17.9827C18.6454 21.7342 19.1827 21.197 19.1827 20.5342V10.5097C19.1827 9.84698 18.6454 9.30972 17.9827 9.30972H15.4328C14.991 9.30972 14.6328 8.95154 14.6328 8.50972C14.6328 8.06789 14.991 7.70972 15.4328 7.70972H17.9827C19.5291 7.70972 20.7827 8.96332 20.7827 10.5097V20.5342C20.7827 22.0806 19.5291 23.3342 17.9827 23.3342H6.00313C4.45673 23.3342 3.20312 22.0806 3.20312 20.5342V10.5097C3.20312 8.96332 4.45673 7.70972 6.00312 7.70972H8.55313C8.99496 7.70972 9.35313 8.06789 9.35313 8.50972C9.35313 8.95154 8.99496 9.30972 8.55313 9.30972H6.00312Z" fill="#1A1A1F"/>
</svg>



