<svg width="40" height="40" viewBox="0 0 40 40" fill="none" xmlns="http://www.w3.org/2000/svg">
<path fill-rule="evenodd" clip-rule="evenodd" d="M19.9416 3.6665C20.4802 3.6665 20.9659 3.99052 21.1727 4.4878L25.0479 13.8049L35.1065 14.6113C35.6434 14.6544 36.1016 15.0162 36.2681 15.5284C36.4345 16.0406 36.2764 16.6026 35.8674 16.953L28.2038 23.5177L30.5451 33.3332C30.6701 33.8571 30.4676 34.4047 30.0319 34.7213C29.5962 35.0379 29.0128 35.0612 28.5532 34.7805L19.9416 29.5205L11.33 34.7805C10.8704 35.0612 10.287 35.0379 9.85128 34.7213C9.41556 34.4047 9.21308 33.8571 9.33805 33.3332L11.6794 23.5177L4.01579 16.953C3.60676 16.6026 3.44869 16.0406 3.61512 15.5284C3.78155 15.0162 4.23979 14.6544 4.77665 14.6113L14.8353 13.8049L18.7105 4.4878C18.9173 3.99052 19.403 3.6665 19.9416 3.6665ZM19.9416 8.47178L16.9847 15.581C16.7927 16.0426 16.3586 16.358 15.8602 16.398L8.18521 17.0133L14.0327 22.0223C14.4124 22.3476 14.5783 22.8579 14.4623 23.3443L12.6758 30.8337L19.2466 26.8203C19.6733 26.5597 20.2099 26.5597 20.6366 26.8203L27.2074 30.8337L25.4209 23.3443C25.3049 22.8579 25.4707 22.3476 25.8505 22.0223L31.698 17.0133L24.023 16.398C23.5246 16.358 23.0905 16.0426 22.8985 15.581L19.9416 8.47178Z" fill="#FF7A7C"/>
<path fill-rule="evenodd" clip-rule="evenodd" d="M19.9416 3.6665C20.4802 3.6665 20.9659 3.99052 21.1727 4.4878L25.0479 13.8049L35.1065 14.6113C35.6434 14.6544 36.1016 15.0162 36.2681 15.5284C36.4345 16.0406 36.2764 16.6026 35.8674 16.953L28.2038 23.5177L30.5451 33.3332C30.6701 33.8571 30.4676 34.4047 30.0319 34.7213C29.5962 35.0379 29.0128 35.0612 28.5532 34.7805L19.9416 29.5205L11.33 34.7805C10.8704 35.0612 10.287 35.0379 9.85128 34.7213C9.41556 34.4047 9.21308 33.8571 9.33805 33.3332L11.6794 23.5177L4.01579 16.953C3.60676 16.6026 3.44869 16.0406 3.61512 15.5284C3.78155 15.0162 4.23979 14.6544 4.77665 14.6113L14.8353 13.8049L18.7105 4.4878C18.9173 3.99052 19.403 3.6665 19.9416 3.6665ZM19.9416 8.47178L16.9847 15.581C16.7927 16.0426 16.3586 16.358 15.8602 16.398L8.18521 17.0133L14.0327 22.0223C14.4124 22.3476 14.5783 22.8579 14.4623 23.3443L12.6758 30.8337L19.2466 26.8203C19.6733 26.5597 20.2099 26.5597 20.6366 26.8203L27.2074 30.8337L25.4209 23.3443C25.3049 22.8579 25.4707 22.3476 25.8505 22.0223L31.698 17.0133L24.023 16.398C23.5246 16.358 23.0905 16.0426 22.8985 15.581L19.9416 8.47178Z" fill="#8596AF"/>
</svg>
