<svg width="24" height="25" viewBox="0 0 24 25" fill="none" xmlns="http://www.w3.org/2000/svg">
<path fill-rule="evenodd" clip-rule="evenodd" d="M11.965 2.71484C12.2881 2.71484 12.5795 2.90925 12.7036 3.20762L15.0287 8.7979L21.0639 9.28174C21.386 9.30756 21.661 9.52464 21.7608 9.83197C21.8607 10.1393 21.7659 10.4765 21.5204 10.6867L16.9223 14.6256L18.3271 20.5149C18.4021 20.8292 18.2806 21.1578 18.0191 21.3477C17.7577 21.5377 17.4077 21.5517 17.1319 21.3832L11.965 18.2273L6.798 21.3832C6.52223 21.5517 6.1722 21.5377 5.91077 21.3477C5.64934 21.1578 5.52785 20.8292 5.60283 20.5149L7.00764 14.6256L2.40947 10.6867C2.16406 10.4765 2.06922 10.1393 2.16907 9.83197C2.26893 9.52464 2.54388 9.30756 2.86599 9.28174L8.90117 8.7979L11.2263 3.20762C11.3504 2.90925 11.6418 2.71484 11.965 2.71484ZM11.965 5.59801L10.1908 9.86352C10.0756 10.1405 9.81514 10.3298 9.5161 10.3537L4.91113 10.7229L8.41963 13.7283C8.64746 13.9235 8.74696 14.2297 8.67736 14.5215L7.60545 19.0152L11.548 16.6071C11.804 16.4508 12.1259 16.4508 12.382 16.6071L16.3245 19.0152L15.2526 14.5215C15.1829 14.2297 15.2824 13.9235 15.5103 13.7283L19.0188 10.7229L14.4138 10.3537C14.1148 10.3298 13.8543 10.1405 13.7391 9.86352L11.965 5.59801Z" fill="#1A1A1F"/>
</svg>



