<svg width="24" height="25" viewBox="0 0 24 25" fill="none" xmlns="http://www.w3.org/2000/svg">
<path fill-rule="evenodd" clip-rule="evenodd" d="M21.8783 14.0815L20.2977 13.8331C20.3649 13.4051 20.4 12.9655 20.4 12.5166C20.4 12.0677 20.3649 11.6281 20.2977 11.2001L21.8783 10.9517C21.9584 11.4616 22 11.9842 22 12.5166C22 13.049 21.9584 13.5716 21.8783 14.0815ZM21.3383 8.93178L19.8447 9.50551C19.5264 8.67688 19.0799 7.91052 18.5289 7.23092L19.7718 6.22326C20.427 7.03145 20.9588 7.94387 21.3383 8.93178ZM18.2933 4.74483L17.2857 5.98766C16.6061 5.43666 15.8397 4.99025 15.0111 4.67194L15.5848 3.17835C16.5727 3.55783 17.4851 4.08957 18.2933 4.74483ZM13.5649 2.63833L13.3165 4.21893C12.8885 4.15167 12.4489 4.1166 12 4.1166C11.5511 4.1166 11.1115 4.15167 10.6835 4.21893L10.4351 2.63833C10.945 2.5582 11.4676 2.5166 12 2.5166C12.5324 2.5166 13.055 2.5582 13.5649 2.63833ZM8.41518 3.17835L8.98891 4.67194C8.16028 4.99025 7.39391 5.43666 6.71431 5.98766L5.70666 4.74483C6.51485 4.08957 7.42727 3.55783 8.41518 3.17835ZM4.22823 6.22326L5.47106 7.23092C4.92006 7.91052 4.47364 8.67688 4.15534 9.50551L2.66175 8.93178C3.04123 7.94387 3.57297 7.03146 4.22823 6.22326ZM2.12173 10.9517C2.0416 11.4616 2 11.9842 2 12.5166C2 13.049 2.0416 13.5716 2.12173 14.0815L3.70233 13.8331C3.63507 13.4051 3.6 12.9655 3.6 12.5166C3.6 12.0677 3.63507 11.6281 3.70233 11.2001L2.12173 10.9517ZM2.66175 16.1014L4.15534 15.5277C4.47364 16.3563 4.92006 17.1227 5.47106 17.8023L4.22823 18.8099C3.57297 18.0017 3.04123 17.0893 2.66175 16.1014ZM5.70666 20.2884L6.71431 19.0455C7.39391 19.5965 8.16028 20.043 8.98891 20.3613L8.41518 21.8549C7.42727 21.4754 6.51485 20.9436 5.70666 20.2884ZM10.4351 22.3949L10.6835 20.8143C11.1115 20.8815 11.5511 20.9166 12 20.9166C12.4489 20.9166 12.8885 20.8815 13.3165 20.8143L13.5649 22.3949C13.055 22.475 12.5324 22.5166 12 22.5166C11.4676 22.5166 10.945 22.475 10.4351 22.3949ZM15.5848 21.8549L15.0111 20.3613C15.8397 20.043 16.6061 19.5965 17.2857 19.0455L18.2933 20.2884C17.4851 20.9436 16.5727 21.4754 15.5848 21.8549ZM19.7718 18.8099L18.5289 17.8023C19.0799 17.1227 19.5264 16.3563 19.8447 15.5277L21.3383 16.1014C20.9588 17.0893 20.427 18.0017 19.7718 18.8099Z" fill="#6F6F7C"/>
</svg>



