<svg width="24" height="24" viewBox="0 0 24 24" fill="none" xmlns="http://www.w3.org/2000/svg">
<path d="M16.5002 11.2C15.7822 11.2 15.2002 11.782 15.2002 12.5C15.2002 13.2179 15.7822 13.8 16.5002 13.8H17.5002C18.2182 13.8 18.8002 13.2179 18.8002 12.5C18.8002 11.782 18.2182 11.2 17.5002 11.2H16.5002Z" fill="#6F6F7C"/>
<path fill-rule="evenodd" clip-rule="evenodd" d="M18.8002 7.20554V7.12035C18.8002 6.51874 18.8002 6.01663 18.7653 5.60978C18.7291 5.18722 18.6504 4.78563 18.4425 4.4149C18.1285 3.85479 17.6314 3.41964 17.0347 3.18238C16.6398 3.02534 16.2313 3.00037 15.8077 3.02031C15.3998 3.0395 14.9021 3.10587 14.3058 3.18539L5.37253 4.37649C3.55648 4.61863 2.2002 6.16776 2.2002 7.99988V15.2339C2.20019 16.0451 2.20018 16.7025 2.24373 17.2354C2.28864 17.7851 2.38384 18.2726 2.61437 18.725C2.97869 19.4401 3.56002 20.0214 4.27503 20.3857C4.72747 20.6162 5.21493 20.7114 5.76466 20.7564C6.2976 20.7999 6.95493 20.7999 7.76612 20.7999H16.2343C17.0455 20.7999 17.7028 20.7999 18.2357 20.7564C18.7855 20.7114 19.2729 20.6162 19.7254 20.3857C20.4404 20.0214 21.0217 19.4401 21.386 18.725C21.6166 18.2726 21.7118 17.7851 21.7567 17.2354C21.8002 16.7025 21.8002 16.0451 21.8002 15.234V10.9731C21.8002 10.53 21.8002 10.1574 21.7793 9.85111C21.7575 9.53147 21.7103 9.22586 21.5871 8.92837C21.3029 8.24229 20.7578 7.6972 20.0717 7.41302C19.7742 7.28979 19.4686 7.24258 19.149 7.22077C19.041 7.2134 18.9248 7.20863 18.8002 7.20554ZM15.8829 4.61854C15.5517 4.63412 15.1224 4.69067 14.483 4.77592L5.584 5.96245C4.84296 6.06126 4.23806 6.54708 3.96196 7.19988H17.2002V7.15487C17.2002 6.50981 17.1995 6.07679 17.1712 5.74647C17.1435 5.4241 17.0945 5.28234 17.0469 5.19738C16.9123 4.95734 16.6993 4.77085 16.4436 4.66916C16.3531 4.63318 16.2061 4.60333 15.8829 4.61854ZM3.8002 8.79988V15.1999C3.8002 16.0532 3.80082 16.645 3.83841 17.1051C3.87524 17.5559 3.94353 17.8094 4.03998 17.9987C4.2509 18.4126 4.58746 18.7492 5.00142 18.9601C5.19071 19.0565 5.44416 19.1248 5.89495 19.1617C6.35507 19.1993 6.94692 19.1999 7.8002 19.1999H16.2002C17.0535 19.1999 17.6453 19.1993 18.1054 19.1617C18.5562 19.1248 18.8097 19.0565 18.999 18.9601C19.4129 18.7492 19.7495 18.4126 19.9604 17.9987C20.0569 17.8094 20.1252 17.5559 20.162 17.1051C20.1996 16.645 20.2002 16.0532 20.2002 15.1999V10.9999C20.2002 10.523 20.1998 10.2054 20.183 9.96003C20.1668 9.72185 20.1379 9.61071 20.1089 9.54066C19.9871 9.24663 19.7535 9.01302 19.4594 8.89123C19.3894 8.86221 19.2782 8.83331 19.0401 8.81706C18.7947 8.80031 18.4771 8.79988 18.0002 8.79988H3.8002Z" fill="#6F6F7C"/>
</svg>
