<svg width="28" height="28" viewBox="0 0 28 28" fill="none" xmlns="http://www.w3.org/2000/svg">
<path fill-rule="evenodd" clip-rule="evenodd" d="M21.9334 8.30785V8.40724C22.0788 8.41084 22.2144 8.41641 22.3403 8.425C22.7133 8.45045 23.0698 8.50553 23.4169 8.64929C24.2173 8.98084 24.8532 9.61678 25.1848 10.4172C25.3285 10.7643 25.3836 11.1208 25.4091 11.4937C25.4335 11.8511 25.4334 12.2856 25.4334 12.8027V14.0006C25.4334 14.5161 25.0156 14.934 24.5001 14.934C23.9846 14.934 23.5668 14.5161 23.5668 14.0006V12.834C23.5668 12.2776 23.5663 11.9071 23.5467 11.6208C23.5278 11.3429 23.4941 11.2133 23.4602 11.1315C23.3181 10.7885 23.0456 10.516 22.7025 10.3739C22.6208 10.34 22.4912 10.3063 22.2133 10.2873C21.927 10.2678 21.5565 10.2673 21.0001 10.2673H4.43344V17.734C4.43344 18.7295 4.43417 19.4199 4.47803 19.9568C4.52099 20.4827 4.60067 20.7784 4.71319 20.9992C4.95926 21.4822 5.35192 21.8748 5.83486 22.1209C6.05571 22.2334 6.3514 22.3131 6.87732 22.356C7.41413 22.3999 8.10461 22.4006 9.10011 22.4006H12.8334C13.3489 22.4006 13.7668 22.8185 13.7668 23.334C13.7668 23.8494 13.3489 24.2673 12.8334 24.2673H9.06035C8.11397 24.2673 7.34708 24.2673 6.72531 24.2165C6.08396 24.1641 5.51526 24.053 4.98742 23.7841C4.15323 23.3591 3.47502 22.6808 3.04998 21.8467C2.78103 21.3188 2.66996 20.7501 2.61756 20.1088C2.56676 19.487 2.56676 18.7201 2.56677 17.7736V9.33397C2.56677 7.19649 4.14911 5.38917 6.26783 5.10668L16.6899 3.71706C17.3857 3.62428 17.9663 3.54685 18.4422 3.52446C18.9364 3.50121 19.413 3.53034 19.8738 3.71355C20.5699 3.99036 21.1498 4.49803 21.5161 5.15149C21.7586 5.58401 21.8505 6.05253 21.8928 6.54552C21.9335 7.02017 21.9335 7.60598 21.9334 8.30785ZM16.8967 5.57268C17.6427 5.47322 18.1435 5.40725 18.5299 5.38907C18.907 5.37133 19.0785 5.40615 19.184 5.44813C19.4824 5.56676 19.7309 5.78433 19.8879 6.06439C19.9435 6.1635 20.0007 6.32889 20.0329 6.70499C20.066 7.09037 20.0668 7.59555 20.0668 8.34812V8.40063H4.62216C4.94428 7.63903 5.64999 7.07224 6.51454 6.95697L16.8967 5.57268Z" fill="#8BE15D"/>
<path fill-rule="evenodd" clip-rule="evenodd" d="M21.9334 8.30785V8.40724C22.0788 8.41084 22.2144 8.41641 22.3403 8.425C22.7133 8.45045 23.0698 8.50553 23.4169 8.64929C24.2173 8.98084 24.8532 9.61678 25.1848 10.4172C25.3285 10.7643 25.3836 11.1208 25.4091 11.4937C25.4335 11.8511 25.4334 12.2856 25.4334 12.8027V14.0006C25.4334 14.5161 25.0156 14.934 24.5001 14.934C23.9846 14.934 23.5668 14.5161 23.5668 14.0006V12.834C23.5668 12.2776 23.5663 11.9071 23.5467 11.6208C23.5278 11.3429 23.4941 11.2133 23.4602 11.1315C23.3181 10.7885 23.0456 10.516 22.7025 10.3739C22.6208 10.34 22.4912 10.3063 22.2133 10.2873C21.927 10.2678 21.5565 10.2673 21.0001 10.2673H4.43344V17.734C4.43344 18.7295 4.43417 19.4199 4.47803 19.9568C4.52099 20.4827 4.60067 20.7784 4.71319 20.9992C4.95926 21.4822 5.35192 21.8748 5.83486 22.1209C6.05571 22.2334 6.3514 22.3131 6.87732 22.356C7.41413 22.3999 8.10461 22.4006 9.10011 22.4006H12.8334C13.3489 22.4006 13.7668 22.8185 13.7668 23.334C13.7668 23.8494 13.3489 24.2673 12.8334 24.2673H9.06035C8.11397 24.2673 7.34708 24.2673 6.72531 24.2165C6.08396 24.1641 5.51526 24.053 4.98742 23.7841C4.15323 23.3591 3.47502 22.6808 3.04998 21.8467C2.78103 21.3188 2.66996 20.7501 2.61756 20.1088C2.56676 19.487 2.56676 18.7201 2.56677 17.7736V9.33397C2.56677 7.19649 4.14911 5.38917 6.26783 5.10668L16.6899 3.71706C17.3857 3.62428 17.9663 3.54685 18.4422 3.52446C18.9364 3.50121 19.413 3.53034 19.8738 3.71355C20.5699 3.99036 21.1498 4.49803 21.5161 5.15149C21.7586 5.58401 21.8505 6.05253 21.8928 6.54552C21.9335 7.02017 21.9335 7.60598 21.9334 8.30785ZM16.8967 5.57268C17.6427 5.47322 18.1435 5.40725 18.5299 5.38907C18.907 5.37133 19.0785 5.40615 19.184 5.44813C19.4824 5.56676 19.7309 5.78433 19.8879 6.06439C19.9435 6.1635 20.0007 6.32889 20.0329 6.70499C20.066 7.09037 20.0668 7.59555 20.0668 8.34812V8.40063H4.62216C4.94428 7.63903 5.64999 7.07224 6.51454 6.95697L16.8967 5.57268Z" fill="url(#paint0_linear_461_58377)" style="mix-blend-mode:color-burn"/>
<path d="M19.2501 13.0674C18.4125 13.0674 17.7334 13.7464 17.7334 14.584C17.7334 15.4217 18.4125 16.1007 19.2501 16.1007H20.4168C21.2544 16.1007 21.9334 15.4217 21.9334 14.584C21.9334 13.7464 21.2544 13.0674 20.4168 13.0674H19.2501Z" fill="#8BE15D"/>
<path d="M19.2501 13.0674C18.4125 13.0674 17.7334 13.7464 17.7334 14.584C17.7334 15.4217 18.4125 16.1007 19.2501 16.1007H20.4168C21.2544 16.1007 21.9334 15.4217 21.9334 14.584C21.9334 13.7464 21.2544 13.0674 20.4168 13.0674H19.2501Z" fill="url(#paint1_linear_461_58377)" style="mix-blend-mode:color-burn"/>
<path d="M16.538 23.3309V22.4729C16.538 21.9575 16.9556 21.5398 17.4711 21.5398C17.9866 21.5398 18.4042 21.9575 18.4042 22.4729V23.3309C18.4042 23.8463 17.9866 24.264 17.4711 24.264C16.9556 24.264 16.538 23.8463 16.538 23.3309ZM20.0756 23.3309V20.5623C20.0757 20.0469 20.4933 19.6292 21.0087 19.6292C21.5241 19.6292 21.9418 20.0469 21.9418 20.5623V23.3309C21.9418 23.8463 21.5242 24.264 21.0087 24.264C20.4933 24.2639 20.0756 23.8463 20.0756 23.3309ZM23.5243 23.324V18.4215C23.5243 17.9062 23.9422 17.4887 24.4574 17.4884C24.9729 17.4884 25.3917 17.906 25.3917 18.4215V23.324C25.3917 23.8395 24.9729 24.2571 24.4574 24.2571C23.9422 24.2568 23.5243 23.8393 23.5243 23.324Z" fill="#8BE15D"/>
<path d="M16.538 23.3309V22.4729C16.538 21.9575 16.9556 21.5398 17.4711 21.5398C17.9866 21.5398 18.4042 21.9575 18.4042 22.4729V23.3309C18.4042 23.8463 17.9866 24.264 17.4711 24.264C16.9556 24.264 16.538 23.8463 16.538 23.3309ZM20.0756 23.3309V20.5623C20.0757 20.0469 20.4933 19.6292 21.0087 19.6292C21.5241 19.6292 21.9418 20.0469 21.9418 20.5623V23.3309C21.9418 23.8463 21.5242 24.264 21.0087 24.264C20.4933 24.2639 20.0756 23.8463 20.0756 23.3309ZM23.5243 23.324V18.4215C23.5243 17.9062 23.9422 17.4887 24.4574 17.4884C24.9729 17.4884 25.3917 17.906 25.3917 18.4215V23.324C25.3917 23.8395 24.9729 24.2571 24.4574 24.2571C23.9422 24.2568 23.5243 23.8393 23.5243 23.324Z" fill="url(#paint2_linear_461_58377)" style="mix-blend-mode:color-burn"/>
<defs>
<linearGradient id="paint0_linear_461_58377" x1="14.0001" y1="3.51758" x2="14.0001" y2="24.2673" gradientUnits="userSpaceOnUse">
<stop stop-opacity="0.04"/>
<stop offset="1" stop-opacity="0.25"/>
</linearGradient>
<linearGradient id="paint1_linear_461_58377" x1="14.0001" y1="3.51758" x2="14.0001" y2="24.2673" gradientUnits="userSpaceOnUse">
<stop stop-opacity="0.04"/>
<stop offset="1" stop-opacity="0.25"/>
</linearGradient>
<linearGradient id="paint2_linear_461_58377" x1="14.0001" y1="3.51758" x2="14.0001" y2="24.2673" gradientUnits="userSpaceOnUse">
<stop stop-opacity="0.04"/>
<stop offset="1" stop-opacity="0.25"/>
</linearGradient>
</defs>
</svg>
