<svg width="24" height="25" viewBox="0 0 24 25" fill="none" xmlns="http://www.w3.org/2000/svg">
<path d="M16.5002 11.7168C15.7822 11.7168 15.2002 12.2988 15.2002 13.0168C15.2002 13.7348 15.7822 14.3168 16.5002 14.3168H17.5002C18.2182 14.3168 18.8002 13.7348 18.8002 13.0168C18.8002 12.2988 18.2182 11.7168 17.5002 11.7168H16.5002Z" fill="#1A1A1F"/>
<path fill-rule="evenodd" clip-rule="evenodd" d="M18.8002 7.72239V7.6372C18.8002 7.03558 18.8002 6.53347 18.7653 6.12663C18.7291 5.70406 18.6504 5.30248 18.4425 4.93174C18.1285 4.37164 17.6314 3.93649 17.0347 3.69923C16.6398 3.54219 16.2313 3.51722 15.8077 3.53715C15.3998 3.55634 14.9021 3.62271 14.3058 3.70224L5.37253 4.89334C3.55648 5.13548 2.2002 6.6846 2.2002 8.51673V15.7507C2.20019 16.5619 2.20018 17.2193 2.24373 17.7523C2.28864 18.302 2.38384 18.7894 2.61437 19.2419C2.97869 19.9569 3.56002 20.5382 4.27503 20.9026C4.72747 21.1331 5.21493 21.2283 5.76466 21.2732C6.2976 21.3167 6.95493 21.3167 7.76612 21.3167H16.2343C17.0455 21.3167 17.7028 21.3167 18.2357 21.2732C18.7855 21.2283 19.2729 21.1331 19.7254 20.9026C20.4404 20.5382 21.0217 19.9569 21.386 19.2419C21.6166 18.7894 21.7118 18.302 21.7567 17.7523C21.8002 17.2193 21.8002 16.562 21.8002 15.7508V11.49C21.8002 11.0468 21.8002 10.6743 21.7793 10.368C21.7575 10.0483 21.7103 9.74271 21.5871 9.44521C21.3029 8.75913 20.7578 8.21405 20.0717 7.92986C19.7742 7.80664 19.4686 7.75942 19.149 7.73761C19.041 7.73025 18.9248 7.72548 18.8002 7.72239ZM15.8829 5.13538C15.5517 5.15097 15.1224 5.20751 14.483 5.29277L5.584 6.4793C4.84296 6.57811 4.23806 7.06393 3.96196 7.71673H17.2002V7.67171C17.2002 7.02665 17.1995 6.59364 17.1712 6.26331C17.1435 5.94094 17.0945 5.79918 17.0469 5.71423C16.9123 5.47418 16.6993 5.28769 16.4436 5.18601C16.3531 5.15002 16.2061 5.12018 15.8829 5.13538ZM3.8002 9.31673V15.7167C3.8002 16.57 3.80082 17.1619 3.83841 17.622C3.87524 18.0728 3.94353 18.3262 4.03998 18.5155C4.2509 18.9295 4.58746 19.266 5.00142 19.4769C5.19071 19.5734 5.44416 19.6417 5.89495 19.6785C6.35507 19.7161 6.94692 19.7167 7.8002 19.7167H16.2002C17.0535 19.7167 17.6453 19.7161 18.1054 19.6785C18.5562 19.6417 18.8097 19.5734 18.999 19.4769C19.4129 19.266 19.7495 18.9295 19.9604 18.5155C20.0569 18.3262 20.1252 18.0728 20.162 17.622C20.1996 17.1619 20.2002 16.57 20.2002 15.7167V11.5167C20.2002 11.0398 20.1998 10.7222 20.183 10.4769C20.1668 10.2387 20.1379 10.1276 20.1089 10.0575C19.9871 9.76347 19.7535 9.52986 19.4594 9.40807C19.3894 9.37906 19.2782 9.35015 19.0401 9.3339C18.7947 9.31716 18.4771 9.31673 18.0002 9.31673H3.8002Z" fill="#1A1A1F"/>
</svg>



